<?xml version="1.0" encoding="UTF-8"?>
<svg version="1.1" xmlns="http://www.w3.org/2000/svg" width="1085" height="1085">
<path d="M0 0 C2.44538891 0.20562779 4.73353165 0.24107991 7.17871094 0.19433594 C11.72157969 0.18421576 16.02110716 0.70005979 20.4921875 1.4609375 C21.2595372 1.58699875 22.0268869 1.71306 22.81748962 1.84294128 C24.42555879 2.10921596 26.03302806 2.3791376 27.63989258 2.65258789 C30.07783376 3.06569499 32.51807861 3.46225564 34.95898438 3.85742188 C36.53271779 4.12010294 38.10629153 4.38374276 39.6796875 4.6484375 C40.39761978 4.76419632 41.11555206 4.87995514 41.85523987 4.9992218 C46.86545033 5.86844387 51.28951794 7.38554942 56.01953125 9.25390625 C57.62828125 9.68703125 57.62828125 9.68703125 59.26953125 10.12890625 C67.61456064 12.63241507 75.39348996 16.32416923 83.08203125 20.37890625 C83.72527344 20.7155127 84.36851562 21.05211914 85.03125 21.39892578 C88.11494527 23.05805225 90.67666297 24.64393572 93.01953125 27.25390625 C93.72078125 27.66640625 94.42203125 28.07890625 95.14453125 28.50390625 C109.28784013 37.11287687 119.88209419 49.02557319 128.01953125 63.25390625 C128.57253906 64.218125 129.12554688 65.18234375 129.6953125 66.17578125 C137.08062221 79.99222628 141.19614477 94.65416331 142.01953125 110.25390625 C142.08527344 111.39351807 142.08527344 111.39351807 142.15234375 112.55615234 C142.94835103 128.62554925 141.90352814 146.52139643 135.01953125 161.25390625 C134.54215971 163.22704193 134.06514131 165.20027987 133.59765625 167.17578125 C132.51516877 171.0668849 130.76692971 174.62344175 129.01953125 178.25390625 C128.50132812 179.35347656 127.983125 180.45304688 127.44921875 181.5859375 C122.71377835 191.47071282 117.1321966 200.09968723 109.77734375 208.24609375 C107.88261999 210.41028933 106.1382617 212.65417539 104.39453125 214.94140625 C101.79141816 218.31453514 99.14742736 221.34423545 96.01953125 224.25390625 C95.39304687 224.86234375 94.7665625 225.47078125 94.12109375 226.09765625 C83.11044012 236.46946649 70.53089401 245.46620742 57.01953125 252.25390625 C55.35108528 253.18823599 53.68449805 254.12589065 52.01953125 255.06640625 C44.53678183 259.16074084 36.77211874 262.69596469 29.04321289 266.29589844 C27.02028949 267.2535473 25.01767978 268.24572018 23.01953125 269.25390625 C23.36119967 271.73100232 23.80853327 273.0253251 25.51953125 274.87890625 C27.87365386 276.17367368 29.42728504 276.62172764 32.01953125 277.12890625 C43.68250621 279.48046543 54.54593634 285.77465307 65.01953125 291.25390625 C65.70128418 291.61000977 66.38303711 291.96611328 67.08544922 292.33300781 C101.01595479 310.24547714 125.24237334 338.43658306 136.94140625 374.9765625 C139.78557652 385.3919601 140.40715523 395.94349406 140.39453125 406.69140625 C140.39437012 407.98731689 140.39420898 409.28322754 140.39404297 410.6184082 C140.07153458 438.17590125 140.07153458 438.17590125 134.01953125 447.25390625 C133.49399964 449.19321335 133.49399964 449.19321335 133.14453125 451.31640625 C129.56499162 468.41559172 119.73893001 486.11560996 109.5703125 500.1171875 C108.32746915 501.82961902 107.16012114 503.59673454 106.01953125 505.37890625 C103.80209845 508.56646591 101.32642867 511.36955695 98.703125 514.2265625 C96.95075948 516.22165125 96.95075948 516.22165125 95.66015625 518.6015625 C93.5685444 521.98300165 91.0435802 524.73520356 88.33203125 527.62890625 C87.79892334 528.20181396 87.26581543 528.77472168 86.71655273 529.36499023 C81.91503862 534.46917859 76.82685491 539.03416196 71.33203125 543.37890625 C68.95956773 545.21802883 68.95956773 545.21802883 66.89453125 547.50390625 C63.15119797 551.08448591 59.04192227 553.96604008 54.82275391 556.95996094 C52.76349594 558.43763048 50.72537917 559.94220821 48.6875 561.44921875 C40.71057732 567.32695125 32.88723439 572.78972738 24.01953125 577.25390625 C22.80507357 577.91652363 21.59301315 578.58354543 20.3828125 579.25390625 C-3.98294751 592.66040723 -31.25846982 604.44892601 -58.98046875 608.25390625 C-60.03234375 608.56328125 -61.08421875 608.87265625 -62.16796875 609.19140625 C-73.9424441 612.47281741 -85.85252765 612.83347247 -98.00195312 613.16601562 C-100.78294844 613.24807778 -103.56036594 613.36653723 -106.33984375 613.48828125 C-120.12440536 613.93834763 -143.17051476 614.12720891 -154.98046875 606.25390625 C-156.32030589 605.75523476 -157.67688216 605.30038487 -159.04296875 604.87890625 C-166.40478434 602.48870638 -173.38973829 599.93909481 -179.87109375 595.6484375 C-181.37912676 594.65146012 -182.91402613 593.69465253 -184.46484375 592.765625 C-194.42496133 586.73486017 -203.29602954 579.25943011 -211.36328125 570.87109375 C-213.21674579 569.01762921 -215.17443873 567.33034396 -217.16796875 565.62890625 C-220.15968102 563.05143106 -222.57884693 560.40085898 -224.98046875 557.25390625 C-226.12322266 556.14208984 -226.12322266 556.14208984 -227.2890625 555.0078125 C-235.96219696 546.13326999 -241.80263437 535.41901314 -246.98046875 524.25390625 C-247.46902344 523.28839844 -247.95757813 522.32289063 -248.4609375 521.328125 C-256.17740677 505.70899819 -261.15421664 488.63089452 -264.4934082 471.57592773 C-265.09234704 468.72053561 -265.79278117 465.89389409 -266.48046875 463.05859375 C-268.018797 456.42889214 -268.95031192 449.8295846 -269.66796875 443.06640625 C-269.79461914 441.89021729 -269.92126953 440.71402832 -270.05175781 439.50219727 C-270.94062641 430.74708115 -271.38869072 422.12987198 -271.05859375 413.33691406 C-270.97893354 411.21297379 -270.93284967 409.08974926 -270.88671875 406.96484375 C-270.61592502 398.12810593 -269.5293793 389.53038622 -268.04296875 380.81640625 C-267.78821777 379.31364136 -267.78821777 379.31364136 -267.52832031 377.78051758 C-266.23679823 370.63840047 -266.23679823 370.63840047 -263.98046875 367.25390625 C-263.4908603 365.28698213 -263.06084912 363.30491121 -262.66796875 361.31640625 C-261.16390447 354.55185845 -258.89835583 348.52577766 -255.98046875 342.25390625 C-255.46484375 341.14144531 -254.94921875 340.02898437 -254.41796875 338.8828125 C-249.09999754 327.84063617 -243.00327671 316.99927871 -234.5859375 308 C-232.87341633 306.18957508 -232.87341633 306.18957508 -231.10546875 303.80859375 C-228.86773533 301.11837747 -226.53689147 299.10724424 -223.79296875 296.94140625 C-220.19326312 294.06833443 -216.72813945 291.13948235 -213.35546875 288.00390625 C-209.81813791 284.81461333 -206.24064185 282.51120798 -202.01953125 280.328125 C-199.79319316 279.20651226 -199.79319316 279.20651226 -197.16796875 277.31640625 C-185.2896083 269.63040831 -171.42166965 264.35884203 -157.703125 260.9921875 C-155.40893908 260.37009117 -153.19747301 259.66423399 -150.94921875 258.8984375 C-145.16088729 256.94581238 -139.29720955 255.28364785 -133.41796875 253.62890625 C-132.33322266 253.31695312 -131.24847656 253.005 -130.13085938 252.68359375 C-121.21932968 250.17299886 -121.21932968 250.17299886 -116.578125 249.66796875 C-113.10537844 249.4054516 -113.10537844 249.4054516 -110.45654297 248.35449219 C-105.63355868 246.82745095 -100.74874769 246.06612833 -95.765625 245.23046875 C-93.52927951 244.84515285 -91.29295197 244.45973277 -89.05664062 244.07421875 C-85.56215219 243.47752136 -82.06730661 242.88302847 -78.57202148 242.29101562 C-65.84686888 240.12903217 -53.39211431 237.80531806 -40.98046875 234.25390625 C-38.03118917 233.54353854 -35.06914286 232.90091328 -32.10546875 232.25390625 C-26.94276438 231.07759386 -22.15314416 229.73326777 -17.3984375 227.37890625 C-14.08575816 225.83762733 -10.66069127 224.62778923 -7.23046875 223.37890625 C0.03519101 220.69789473 7.06837347 217.67963981 14.01953125 214.25390625 C14.89480469 213.82851563 15.77007813 213.403125 16.671875 212.96484375 C43.19848993 199.32258464 70.72633815 176.44258628 80.70703125 147.56640625 C81.15208669 146.13122746 81.59025502 144.69388348 82.01953125 143.25390625 C82.37015625 142.16078125 82.72078125 141.06765625 83.08203125 139.94140625 C87.00552448 124.50899954 88.26061157 104.70151556 79.91601562 90.35693359 C74.61724635 82.32431252 68.37192724 76.11425955 60.01953125 71.25390625 C59.21 70.74085938 58.40046875 70.2278125 57.56640625 69.69921875 C49.60643585 65.18205764 39.98727665 63.36939035 31.171875 61.0859375 C29.10295368 60.53986533 27.04949854 59.93056201 25.01953125 59.25390625 C23.17306212 59.04947257 21.32161674 58.88853999 19.46875 58.75390625 C18.37755859 58.67140625 17.28636719 58.58890625 16.16210938 58.50390625 C15.02193359 58.42140625 13.88175781 58.33890625 12.70703125 58.25390625 C10.4607562 58.08970111 8.21465411 57.92310915 5.96875 57.75390625 C4.97190186 57.68171875 3.97505371 57.60953125 2.94799805 57.53515625 C0.01953125 57.25390625 0.01953125 57.25390625 -3.17797852 56.6965332 C-6.41125914 56.18586696 -8.76396753 56.67086649 -11.98046875 57.25390625 C-14.23872008 57.38115436 -16.49435169 57.43433653 -18.75537109 57.4934082 C-36.84524694 58.00128359 -54.65757364 61.04118152 -71.98046875 66.25390625 C-72.737229 66.47643066 -73.49398926 66.69895508 -74.27368164 66.92822266 C-88.26816918 71.06558159 -101.87009283 75.82764042 -114.97460938 82.27978516 C-117.23010815 83.37514057 -119.50169069 84.43154816 -121.77734375 85.484375 C-130.11518446 89.35025646 -138.26646002 93.2289759 -145.98046875 98.25390625 C-147.30963747 99.10977637 -148.63909223 99.96520235 -149.96875 100.8203125 C-152.94123482 102.73520877 -155.90601828 104.66141157 -158.8671875 106.59375 C-162.11887921 108.70990679 -165.41480118 110.73926197 -168.73046875 112.75390625 C-174.77412581 116.58155572 -180.04332202 121.23893581 -185.42675781 125.92236328 C-187.68998123 127.86196424 -190.02445217 129.70920165 -192.35546875 131.56640625 C-196.98970564 135.34320724 -201.4113191 139.31513258 -205.79296875 143.37890625 C-206.4154248 143.95294189 -207.03788086 144.52697754 -207.67919922 145.1184082 C-211.22982599 148.44479989 -214.46546169 151.896598 -217.58642578 155.62744141 C-219.59109424 157.9663383 -221.78412672 160.09585228 -223.98046875 162.25390625 C-225.80823408 164.15882616 -227.62020009 166.07136851 -229.41796875 168.00390625 C-229.86978516 168.47828125 -230.32160156 168.95265625 -230.78710938 169.44140625 C-234.10179221 173.01468137 -236.77916822 176.82470211 -239.43383789 180.90722656 C-242.49767465 185.5559399 -245.8403847 190.00999077 -249.125 194.50390625 C-254.39498531 201.74856385 -259.5323159 208.9031437 -263.41796875 217.00390625 C-265.74728761 221.79975581 -268.17300418 226.51259211 -270.73046875 231.19140625 C-276.35925176 241.56947492 -280.18974986 252.49299272 -283.765625 263.71875 C-284.02214844 264.51410156 -284.27867187 265.30945313 -284.54296875 266.12890625 C-284.88521484 267.20785156 -284.88521484 267.20785156 -285.234375 268.30859375 C-285.98046875 270.25390625 -285.98046875 270.25390625 -287.98046875 273.25390625 C-288.53821119 275.57411482 -289.0312704 277.91026266 -289.48046875 280.25390625 C-290.75824653 286.92057292 -290.75824653 286.92057292 -292.98046875 290.25390625 C-293.5369141 292.9895198 -294.00813137 295.68392599 -294.41796875 298.44140625 C-294.67553269 300.08748296 -294.93467561 301.73331331 -295.1953125 303.37890625 C-295.39036377 304.61640625 -295.39036377 304.61640625 -295.58935547 305.87890625 C-296.14445959 309.24972578 -296.81383206 312.5907716 -297.48046875 315.94140625 C-299.31522526 325.53042316 -300.46382873 335.20342446 -301.66577148 344.88842773 C-301.91484526 346.76063551 -302.22414992 348.62482005 -302.5546875 350.484375 C-308.22394722 387.36056899 -300.83432416 441.71312854 -286.98046875 476.25390625 C-286.31594533 478.39402541 -285.66887756 480.53967682 -285.04296875 482.69140625 C-283.62773812 487.37463128 -281.97816136 491.74488045 -279.90234375 496.16796875 C-278.99699526 498.21651151 -278.32058972 500.23799111 -277.66796875 502.37890625 C-271.83884601 520.46172248 -261.54653861 539.57522194 -250.98046875 555.25390625 C-250.267212 556.60548617 -249.55944287 557.9599683 -248.85546875 559.31640625 C-246.33513376 563.92545923 -243.22890266 567.98499768 -239.98803711 572.09716797 C-236.82259909 576.12103972 -233.84653836 580.24295123 -230.91796875 584.44140625 C-226.68279023 590.46116272 -222.01705361 595.88213711 -216.98046875 601.25390625 C-215.39409925 603.02202021 -213.81074289 604.79284238 -212.23046875 606.56640625 C-209.23263385 609.89503672 -206.18884507 613.12573934 -202.98046875 616.25390625 C-202.31402344 616.93066406 -201.64757812 617.60742188 -200.9609375 618.3046875 C-197.44058934 621.87301315 -193.917999 625.3722069 -190.10546875 628.62890625 C-172.67559447 643.74879719 -172.67559447 643.74879719 -170.98046875 652.25390625 C-170.69573137 659.09814914 -172.10725881 665.65667789 -176.453125 671.09765625 C-182.74358309 677.86097338 -189.09899114 680.78657114 -198.3203125 681.28125 C-212.05564763 681.14006447 -222.28361642 670.8878121 -231.98046875 662.25390625 C-232.49931641 661.79290527 -233.01816406 661.3319043 -233.55273438 660.85693359 C-243.58199152 651.90132945 -253.37835858 642.60673943 -261.98046875 632.25390625 C-262.44179199 631.70105957 -262.90311523 631.14821289 -263.37841797 630.57861328 C-272.8685756 619.17208851 -282.03418489 607.60787359 -289.48828125 594.7421875 C-291.21741658 591.85878643 -293.08930572 589.09605908 -294.98046875 586.31640625 C-298.68814826 580.786308 -301.88873122 575.14491965 -304.98046875 569.25390625 C-305.76573715 567.81835886 -306.55230904 566.3835241 -307.33984375 564.94921875 C-330.05705704 523.15661126 -344.23802181 478.08854132 -351.98046875 431.25390625 C-352.21443359 429.85084229 -352.21443359 429.85084229 -352.453125 428.41943359 C-354.56202749 415.35991241 -355.45524287 402.26198897 -356.16796875 389.06640625 C-356.21094086 388.27099426 -356.25391296 387.47558228 -356.29818726 386.65606689 C-357.58424909 362.25527532 -357.58424909 362.25527532 -356.44238281 356.57910156 C-355.82090225 354.23984488 -355.82090225 354.23984488 -356.4765625 351.8515625 C-357.30626592 347.57440923 -356.19461832 343.56012727 -355.453125 339.3125 C-354.98804404 336.14411061 -355.00222772 333.12863997 -355.08984375 329.9296875 C-355.15741677 322.28078031 -353.88043377 314.92077021 -352.58178711 307.40722656 C-352.16664243 304.99620343 -351.77082589 302.58254814 -351.37695312 300.16796875 C-351.11442005 298.60788085 -350.85078634 297.04797768 -350.5859375 295.48828125 C-350.47017868 294.77976013 -350.35441986 294.07123901 -350.2351532 293.34124756 C-349.47287487 289.00902495 -348.26263721 285.10941352 -346.64768982 281.02023315 C-345.87800493 278.98265492 -345.42301826 277.01208993 -345.1015625 274.859375 C-344.98490234 274.13169922 -344.86824219 273.40402344 -344.74804688 272.65429688 C-344.63912109 271.92404297 -344.53019531 271.19378906 -344.41796875 270.44140625 C-343.24587686 262.65201841 -343.24587686 262.65201841 -340.98046875 259.25390625 C-340.44696803 257.39363673 -339.9743909 255.51546413 -339.54296875 253.62890625 C-336.34375 240.29882812 -336.34375 240.29882812 -332.98046875 235.25390625 C-332.53921021 233.65858692 -332.0994909 232.0628242 -331.66796875 230.46484375 C-329.34993077 223.01024434 -325.9063712 215.92173494 -322.34765625 208.9921875 C-321.03443323 206.36198939 -319.80745366 203.70109197 -318.59350586 201.02392578 C-313.00851892 188.76065318 -306.47783902 177.15447655 -298.86328125 166.03125 C-297.0764082 163.3954269 -295.39871818 160.71581898 -293.73046875 158.00390625 C-284.62252771 143.61419118 -273.62868874 130.23980132 -262.1796875 117.671875 C-259.38478365 114.59897006 -256.64298726 111.48066344 -253.90234375 108.359375 C-248.97274367 102.95885784 -243.57378047 98.37089541 -237.91796875 93.75390625 C-235.11890002 91.3717201 -232.55278085 88.87657356 -229.98046875 86.25390625 C-219.55822793 76.21696084 -207.85133317 67.74021524 -195.85546875 59.69140625 C-195.25259033 59.28607666 -194.64971191 58.88074707 -194.02856445 58.46313477 C-190.45767605 56.10637842 -186.81223979 54.14600836 -182.98046875 52.25390625 C-181.56632191 51.34426585 -180.16908515 50.40761564 -178.79296875 49.44140625 C-174.52847816 46.54068677 -170.11200583 44.06494128 -165.55859375 41.6484375 C-163.83346958 40.71530215 -162.1344207 39.73235179 -160.46484375 38.703125 C-158.01748027 37.2754963 -155.61555178 36.28272725 -152.98046875 35.25390625 C-151.13981068 34.33087037 -149.30691165 33.39226045 -147.48046875 32.44140625 C-142.14819332 29.74912993 -136.75261685 27.53511812 -131.15625 25.45703125 C-128.28060002 24.36760912 -125.48261578 23.17770802 -122.66796875 21.94140625 C-109.20455223 16.30348942 -95.12918177 11.86699307 -80.98046875 8.31640625 C-80.18705078 8.11724609 -79.39363281 7.91808594 -78.57617188 7.71289062 C-75.00710912 6.8549722 -71.50498782 6.15540483 -67.85546875 5.75 C-64.05031509 5.37060653 -64.05031509 5.37060653 -60.7734375 4.2890625 C-55.34357896 2.80717526 -49.88118084 2.28458154 -44.29296875 1.69140625 C-43.09849121 1.56282227 -41.90401367 1.43423828 -40.67333984 1.30175781 C-27.14470281 -0.10630635 -13.57456346 -1.49984687 0 0 Z M-165.98046875 319.25390625 C-167.27404297 320.00414062 -167.27404297 320.00414062 -168.59375 320.76953125 C-179.12094647 327.14243095 -190.85834353 335.42507751 -196.98046875 346.25390625 C-198.11713582 347.82308701 -199.26323458 349.38547268 -200.41796875 350.94140625 C-203.41066323 355.15895881 -205.43104919 359.26165111 -207.15625 364.125 C-207.98046875 366.25390625 -207.98046875 366.25390625 -209.98046875 369.25390625 C-210.54605217 370.94795038 -211.06393149 372.65838498 -211.54296875 374.37890625 C-212.87785306 379.15129056 -212.87785306 379.15129056 -213.98046875 380.25390625 C-215.01414961 385.24070009 -215.7624964 390.2843309 -216.54296875 395.31640625 C-216.65852112 396.05822144 -216.77407349 396.80003662 -216.89312744 397.56433105 C-219.13135385 412.19204772 -221.07289068 427.62774713 -217.98046875 442.25390625 C-217.70278171 444.3571794 -217.43263362 446.46145481 -217.16796875 448.56640625 C-214.51145342 467.27921274 -208.65879875 484.81228778 -199.87792969 501.50878906 C-198.70780742 503.78409754 -197.6674653 506.11405212 -196.60546875 508.44140625 C-191.10331736 519.46429738 -181.74399249 530.80279602 -171.98046875 538.25390625 C-171.2534375 539.0221875 -170.52640625 539.79046875 -169.77734375 540.58203125 C-166.67481885 543.54589582 -163.52868676 545.64207369 -159.85546875 547.81640625 C-159.25476563 548.18958984 -158.6540625 548.56277344 -158.03515625 548.94726562 C-135.92854007 562.18820761 -107.71602562 562.59000574 -82.98046875 559.25390625 C-82.16384766 559.14481934 -81.34722656 559.03573242 -80.50585938 558.92333984 C-67.22766406 557.02603327 -53.44316018 553.51081826 -41.12109375 548.1484375 C-39.46914161 547.45811443 -37.78077194 546.85454626 -36.08203125 546.2890625 C-22.66061222 541.80962164 -9.98115192 535.194345 1.90234375 527.5625 C3.65753497 526.47764934 5.45512 525.461738 7.26171875 524.46484375 C11.4184002 522.10010225 15.20496169 519.31694863 19.01953125 516.44140625 C19.69242188 515.94576172 20.3653125 515.45011719 21.05859375 514.93945312 C25.78283177 511.39627461 29.94306692 507.52009699 34.01953125 503.25390625 C36.52539018 500.68692881 38.92960611 498.32339386 41.76953125 496.12890625 C46.57017826 492.18771011 50.21213792 487.12030964 54.01953125 482.25390625 C54.7775 481.3 55.53546875 480.34609375 56.31640625 479.36328125 C62.00409781 472.02812041 66.64051481 464.40826727 71.01953125 456.25390625 C71.51582031 455.33222656 72.01210938 454.41054688 72.5234375 453.4609375 C74.97454899 448.74163329 76.90214592 444.06083794 78.44140625 438.96875 C79.01953125 437.25390625 79.01953125 437.25390625 80.01953125 436.25390625 C80.91301427 431.93404563 81.58980849 427.57610565 82.28613281 423.22070312 C82.63672975 421.05216077 83.00747031 418.88771065 83.37890625 416.72265625 C85.19254431 405.70407212 85.75964068 395.16818632 82.14453125 384.37890625 C81.81710937 383.37085938 81.4896875 382.3628125 81.15234375 381.32421875 C72.38853509 357.57127527 50.27521821 342.59406454 28.01953125 332.25390625 C26.78074219 331.90199219 25.54195312 331.55007813 24.265625 331.1875 C21.01953125 330.25390625 21.01953125 330.25390625 19.01953125 328.25390625 C17.86453125 328.08890625 16.70953125 327.92390625 15.51953125 327.75390625 C12.01953125 327.25390625 12.01953125 327.25390625 10.01953125 325.25390625 C8.12194622 324.68576702 6.20042212 324.19580167 4.26953125 323.75390625 C1.13345879 323.02898498 -1.90821746 322.27814784 -4.9609375 321.25390625 C-9.19286989 319.8523866 -13.50647254 318.97854147 -17.859375 318.03515625 C-20.98046875 317.25390625 -20.98046875 317.25390625 -23.19628906 316.29052734 C-26.62260812 315.01482139 -30.05270256 314.44196323 -33.6484375 313.88671875 C-34.39197983 313.76703735 -35.13552216 313.64735596 -35.90159607 313.52404785 C-38.32276477 313.13601518 -40.74518976 312.75674575 -43.16796875 312.37890625 C-44.85273339 312.11397018 -46.53746623 311.84883186 -48.22216797 311.58349609 C-50.75877341 311.1841394 -53.29545883 310.78537732 -55.83258057 310.38931274 C-60.65088527 309.63424416 -65.45657387 308.83106988 -70.2578125 307.97265625 C-101.16756488 302.55303619 -138.11796779 302.48709151 -165.98046875 319.25390625 Z " fill="#3C8571" transform="translate(831.98046875,240.74609375)"/>
<path d="M0 0 C0.84111328 0.06058594 1.68222656 0.12117187 2.54882812 0.18359375 C33.41093358 2.43563123 64.10592105 11.5200005 91 27 C91.9115686 27.51880737 91.9115686 27.51880737 92.84155273 28.0480957 C115.9002387 41.27355568 138.58718259 57.75223383 157 77 C159.39000376 79.44558524 161.66209058 81.74101022 164.375 83.8203125 C167.07941084 86.06593936 169.12348045 88.37972137 171.3125 91.125 C172.47652344 92.58099609 172.47652344 92.58099609 173.6640625 94.06640625 C174.43492187 95.03449219 175.20578125 96.00257813 176 97 C177.06347656 98.28197266 177.06347656 98.28197266 178.1484375 99.58984375 C186.64939434 109.89847532 197.17154997 124.93572944 196.125 139.125 C194.97064064 144.36012096 192.55115901 148.44884099 188.75 152.25 C181.18846667 157.06188485 174.77912258 157.75859089 166.0625 156.375 C154.81042528 153.2200065 147.20043119 143.63888679 140.27734375 134.85546875 C128.55744831 120.1603683 115.88985815 106.5364765 101 95 C100.00742187 94.20207031 99.01484375 93.40414062 97.9921875 92.58203125 C78.81113243 77.27536438 57.29979146 66.5539302 34 59 C32.453125 58.4740625 32.453125 58.4740625 30.875 57.9375 C-2.11941331 47.17845218 -38.02120615 48.61062959 -69.4375 63.3125 C-76.02784631 66.77110158 -81.46601312 71.06043531 -87 76 C-87.84175781 76.69867188 -88.68351562 77.39734375 -89.55078125 78.1171875 C-103.71760344 90.14686855 -114.04102863 106.51121812 -120 124 C-120.28488281 124.80179687 -120.56976563 125.60359375 -120.86328125 126.4296875 C-121.61928785 128.6085373 -122.31458945 130.79795577 -123 133 C-123.24057129 133.76030518 -123.48114258 134.52061035 -123.72900391 135.30395508 C-126.04418754 143.13338897 -127.01579041 150.95019062 -127.75 159.0625 C-127.81315399 159.74830139 -127.87630798 160.43410278 -127.94137573 161.14068604 C-131.62246467 201.95262999 -117.91149423 240.16466066 -92.015625 271.66796875 C-74.23506627 292.91348591 -53.39129722 307.88759381 -28.4675293 319.88330078 C-22.93764013 322.65408946 -19.02547906 325.92356281 -17 332 C-15.32010951 340.81150108 -18.52991253 346.8992369 -23.23828125 354.04296875 C-26.98960575 359.50153145 -30.99620025 364.76599077 -35.01171875 370.03125 C-55.6803642 397.27900402 -68.66823554 429.36688651 -64.34765625 464.13867188 C-62.01134329 479.16720188 -55.6863526 491.39062151 -46 503 C-45.46375 503.67546875 -44.9275 504.3509375 -44.375 505.046875 C-33.22983834 518.73604095 -17.08181215 528.80535382 0 533 C1.43085938 533.38285156 1.43085938 533.38285156 2.890625 533.7734375 C26.76555558 539.59799786 52.38579974 539.84055057 76 533 C77.16917969 532.68546875 78.33835937 532.3709375 79.54296875 532.046875 C95.689542 527.24412069 111.03227904 518.78938445 125.1796875 509.75390625 C134.83681932 503.7482938 143.10795975 499.54588813 154.56640625 502.14453125 C159.71903634 503.95580892 162.854534 507.3199832 165.875 511.75 C168.79065369 520.17299956 168.41875533 527.75549255 165 536 C163.25880894 538.93358264 161.27376956 541.46319797 159 544 C158.278125 544.825 157.55625 545.65 156.8125 546.5 C128.81604487 571.38573789 90.52331066 582.45682304 54 586 C52.7625 586.12503906 51.525 586.25007812 50.25 586.37890625 C41.80045829 587.07423312 33.46694557 586.98576181 25 586.6875 C23.93716797 586.65293701 22.87433594 586.61837402 21.77929688 586.58276367 C15.86739751 586.32740921 10.70286559 585.5250491 5 584 C3.54036347 583.82558848 2.07766466 583.67548066 0.61328125 583.546875 C-4.39667647 583.05307158 -9.01674257 581.74077421 -13.8125 580.25 C-14.6890625 579.98123047 -15.565625 579.71246094 -16.46875 579.43554688 C-23.16348476 577.34406031 -29.63987507 574.96988592 -36 572 C-36.9796875 571.55011719 -37.959375 571.10023438 -38.96875 570.63671875 C-50.04630069 565.34062171 -59.5457329 558.78622171 -68.4765625 550.3671875 C-70.63605323 548.34141137 -72.84377959 546.44698642 -75.125 544.5625 C-96.10986122 526.19003987 -110.63027516 492.73793301 -113 465 C-114.78314695 432.89728976 -109.31600572 401.85569903 -95 373 C-94.505 371.96101563 -94.01 370.92203125 -93.5 369.8515625 C-90.76538852 364.19718355 -87.88012211 359.08737412 -84.00390625 354.1328125 C-82.50665994 350.95189233 -82.85143472 349.29735714 -84 346 C-86.12467071 344.14465374 -88.01746782 342.73324214 -90.375 341.25 C-96.25463501 337.31546786 -101.39256866 333.14656446 -106.5546875 328.29296875 C-108.65250304 326.32584779 -110.79480787 324.46861204 -113 322.625 C-127.01303981 310.38142754 -138.46192449 294.88175686 -148 279 C-148.39541992 278.35144043 -148.79083984 277.70288086 -149.19824219 277.03466797 C-176.14798257 232.42120004 -186.37705701 177.32928273 -174.1328125 126.45703125 C-168.75266245 104.95998686 -160.76399187 84.26846337 -148 66 C-147.319375 65.02160156 -146.63875 64.04320312 -145.9375 63.03515625 C-135.28475133 48.47759937 -122.28577351 35.61557503 -107 26 C-106.03441162 25.3805249 -106.03441162 25.3805249 -105.04931641 24.74853516 C-83.98410369 11.34524248 -59.98588479 2.23754192 -35 0 C-34.03731201 -0.09039551 -34.03731201 -0.09039551 -33.05517578 -0.18261719 C-21.94409346 -1.18237656 -11.10622386 -0.88273312 0 0 Z " fill="#3C8571" transform="translate(305,241)"/>
<path d="M0 0 C0.66 0 1.32 0 2 0 C3.59817775 8.33371103 5.13818026 16.67296213 6.53515625 25.04296875 C6.66103119 25.79417999 6.78690613 26.54539124 6.91659546 27.31936646 C7.43128558 30.395056 7.94473654 33.47091417 8.45043945 36.5480957 C8.82776775 38.83893259 9.21214213 41.12849721 9.59765625 43.41796875 C9.70916519 44.10755173 9.82067413 44.7971347 9.93556213 45.50761414 C10.57130366 49.24691674 11.52164436 52.516716 13 56 C13.42868706 57.57966672 13.82289688 59.16906078 14.18359375 60.765625 C14.38919922 61.65636719 14.59480469 62.54710937 14.80664062 63.46484375 C15.22365645 65.30591053 15.64032914 67.14705507 16.05664062 68.98828125 C17.23602181 74.09525898 18.58675643 79.03138419 20.36669922 83.96362305 C21.39587564 87.27293706 21.68688243 90.55570668 22 94 C22.66 94 23.32 94 24 94 C24.36351562 95.23234375 24.72703125 96.4646875 25.1015625 97.734375 C27.98779669 107.31283454 31.14830092 116.20629541 36 125 C38.308756 129.34495052 40.23457623 133.58280776 41.8125 138.25 C43.70912346 143.65500204 46.37529436 148.3305392 49.3359375 153.21875 C50.70753094 155.51117848 51.95444964 157.78929927 53.125 160.1875 C57.16550725 168.60748077 57.16550725 168.60748077 62.625 176.125 C64.76646898 178.71730456 65.79532342 180.79511736 66.99609375 183.8828125 C69.38467238 188.92020401 72.83309128 193.4290126 76 198 C76.515625 198.75667969 77.03125 199.51335937 77.5625 200.29296875 C79.78542758 203.67859415 79.78542758 203.67859415 83 206 C83.95603169 207.74723033 84.91197785 209.49450762 85.8671875 211.2421875 C87.00827698 213.2193444 87.00827698 213.2193444 89.4375 214.9375 C91.89555219 216.91593225 92.79081995 218.14700675 94.3125 220.8125 C96.68674019 224.86755151 99.6154194 227.44315412 103.21484375 230.41015625 C105.39310009 232.35009133 106.59606221 234.45954113 108 237 C109.62102968 238.71108689 111.29503463 240.37253306 113 242 C114.27347814 243.26818301 115.54423141 244.53910709 116.8125 245.8125 C117.41707031 246.41707031 118.02164063 247.02164063 118.64453125 247.64453125 C119.09183594 248.09183594 119.53914062 248.53914062 120 249 C119.67 249.66 119.34 250.32 119 251 C115.97489042 248.00428676 112.95572125 245.00265195 109.9375 242 C109.08994141 241.16082031 108.24238281 240.32164062 107.36914062 239.45703125 C102.36415087 234.47136578 97.54982738 229.40460983 93 224 C92.2097644 223.06172363 92.2097644 223.06172363 91.40356445 222.10449219 C81.96841294 210.79222829 72.89063125 199.25791157 65.4921875 186.48828125 C63.76305217 183.60488018 61.89116303 180.84215283 60 178.0625 C56.29232049 172.53240175 53.09173753 166.8910134 50 161 C49.2147316 159.56445261 48.42815971 158.12961785 47.640625 156.6953125 C21.14471184 107.95107241 6.40180041 54.95343737 0 0 Z " fill="#539281" transform="translate(477,649)"/>
<path d="M0 0 C0 0.66 0 1.32 0 2 C-0.52730713 2.17539307 -1.05461426 2.35078613 -1.59790039 2.53149414 C-12.38215771 6.14419108 -22.7806277 9.99714981 -32.99414062 15.02587891 C-35.2496394 16.12123432 -37.52122194 17.17764191 -39.796875 18.23046875 C-48.13471571 22.09635021 -56.28599127 25.97506965 -64 31 C-65.32916872 31.85587012 -66.65862348 32.7112961 -67.98828125 33.56640625 C-70.96076607 35.48130252 -73.92554953 37.40750532 -76.88671875 39.33984375 C-80.13841046 41.45600054 -83.43433243 43.48535572 -86.75 45.5 C-92.79365706 49.32764947 -98.06285327 53.98502956 -103.44628906 58.66845703 C-105.70951248 60.60805799 -108.04398342 62.4552954 -110.375 64.3125 C-115.00923689 68.08930099 -119.43085035 72.06122633 -123.8125 76.125 C-124.43495605 76.69903564 -125.05741211 77.27307129 -125.69873047 77.86450195 C-129.24935724 81.19089364 -132.48499294 84.64269175 -135.60595703 88.37353516 C-137.61062549 90.71243205 -139.80365797 92.84194603 -142 95 C-143.82776533 96.90491991 -145.63973134 98.81746226 -147.4375 100.75 C-147.88931641 101.224375 -148.34113281 101.69875 -148.80664062 102.1875 C-152.12010926 105.75946619 -154.7955067 109.56778842 -157.44897461 113.64892578 C-160.53832514 118.33182293 -163.91383399 122.81607204 -167.23242188 127.33789062 C-170.7054359 132.10453028 -173.95007822 136.95170561 -177 142 C-177.66 141.67 -178.32 141.34 -179 141 C-177.68 138.36 -176.36 135.72 -175 133 C-174.34 133 -173.68 133 -173 133 C-172.938125 132.278125 -172.87625 131.55625 -172.8125 130.8125 C-171.75042101 127.13607273 -169.71658286 125.65190232 -167 123 C-165.20679176 119.83354526 -165.20679176 119.83354526 -164 117 C-163.34 117 -162.68 117 -162 117 C-162 116.01 -162 115.02 -162 114 C-161.360625 113.525625 -160.72125 113.05125 -160.0625 112.5625 C-157.84221166 111.22619949 -157.84221166 111.22619949 -157.5625 109.125 C-156.68895513 105.8249416 -154.50884292 104.20288646 -152 102 C-151.34 102 -150.68 102 -150 102 C-149.896875 101.38125 -149.79375 100.7625 -149.6875 100.125 C-149 98 -149 98 -146 96 C-145.505 94.515 -145.505 94.515 -145 93 C-142.5625 90.3125 -142.5625 90.3125 -140 88 C-139.34 88 -138.68 88 -138 88 C-137.938125 87.401875 -137.87625 86.80375 -137.8125 86.1875 C-136.67922246 83.13636816 -134.75400399 82.6120999 -132 81 C-131.67 80.34 -131.34 79.68 -131 79 C-129.62100451 76.24200902 -127.62327638 75.56147404 -125 74 C-124.29875 73.113125 -123.5975 72.22625 -122.875 71.3125 C-122.25625 70.549375 -121.6375 69.78625 -121 69 C-120.01 69 -119.02 69 -118 69 C-118 68.34 -118 67.68 -118 67 C-115.953125 65.125 -115.953125 65.125 -113.25 63 C-112.36828125 62.29875 -111.4865625 61.5975 -110.578125 60.875 C-108.42201936 59.30692317 -106.42251379 58.08673516 -104 57 C-104 56.34 -104 55.68 -104 55 C-102.59680482 54.02368046 -101.18642458 53.05611553 -99.7421875 52.14160156 C-98.00764869 51.00501195 -96.40058529 49.78666833 -94.78125 48.4921875 C-94.24113281 48.06292969 -93.70101562 47.63367188 -93.14453125 47.19140625 C-92.04435531 46.31074285 -90.94800735 45.42527677 -89.85546875 44.53515625 C-86.37875539 41.78863568 -83.27845941 40.14693641 -79 39 C-79 38.34 -79 37.68 -79 37 C-78.41992188 36.68546875 -77.83984375 36.3709375 -77.2421875 36.046875 C-73.59002839 34.04602215 -69.98877999 32.05953999 -66.5625 29.6875 C-64 28 -64 28 -62 28 C-62 27.34 -62 26.68 -62 26 C-60.66666667 25.33333333 -59.33333333 24.66666667 -58 24 C-57.09636719 23.54753906 -56.19273437 23.09507812 -55.26171875 22.62890625 C-52.84960713 21.42429482 -50.4355253 20.22411564 -48.01953125 19.02734375 C-47.32537109 18.68251953 -46.63121094 18.33769531 -45.91601562 17.98242188 C-44.54443577 17.30108926 -43.17207527 16.62132523 -41.79882812 15.94335938 C-38.5612632 14.33261456 -35.38817222 12.66866931 -32.265625 10.84375 C-29.75110333 9.42406791 -27.66900901 8.37578297 -24.9375 7.5625 C-19.61016194 5.90000312 -14.38115621 3.98985869 -9.13671875 2.0859375 C-3.11151079 0 -3.11151079 0 0 0 Z " fill="#5A9787" transform="translate(750,308)"/>
<path d="M0 0 C0.66 0 1.32 0 2 0 C0.33097916 4.13233472 -2.62242172 7.1114423 -5.625 10.3125 C-6.16261963 10.88991943 -6.70023926 11.46733887 -7.25415039 12.06225586 C-12.07304043 17.18237156 -17.17418939 21.76563812 -22.6875 26.125 C-25.05996352 27.96412258 -25.05996352 27.96412258 -27.125 30.25 C-30.86833328 33.83057966 -34.97760898 36.71213383 -39.19677734 39.70605469 C-41.25603531 41.18372423 -43.29415208 42.68830196 -45.33203125 44.1953125 C-53.30895393 50.073045 -61.13229686 55.53582113 -70 60 C-71.21445768 60.66261738 -72.4265181 61.32963918 -73.63671875 62 C-96.8723344 74.78467422 -123.66167882 87.12483132 -150.1875 90.625 C-152.89924505 90.69676169 -152.89924505 90.69676169 -154 92 C-155.66617115 92.04063832 -157.33388095 92.042721 -159 92 C-158 90 -158 90 -155.69140625 89.0703125 C-149.10082752 87.07915139 -142.54510445 85.42392165 -135.8125 84 C-130.12677236 82.79033334 -124.83065831 81.42161396 -119.4921875 79.06640625 C-116.33741352 77.71647945 -113.11787016 76.62094983 -109.875 75.5 C-105.40427916 73.91812682 -101.1655903 72.24929528 -96.98046875 70.02734375 C-94.56834353 68.77608353 -92.10506612 67.67282249 -89.625 66.5625 C-80.17581295 62.75982448 -80.17581295 62.75982448 -72 57 C-70.27663024 56.25212256 -68.55173972 55.50706455 -66.8125 54.796875 C-64.78254208 53.94976535 -64.78254208 53.94976535 -62.1875 52.3125 C-60 51 -60 51 -58 51 C-57.67 50.01 -57.34 49.02 -57 48 C-55.07421875 46.46484375 -55.07421875 46.46484375 -52.6875 44.9375 C-51.90761719 44.43089844 -51.12773438 43.92429687 -50.32421875 43.40234375 C-48 42 -48 42 -45.8359375 40.953125 C-43.79178971 40.01997036 -43.79178971 40.01997036 -41.9375 37.8125 C-39.4363138 35.16326851 -36.60757184 33.44789929 -33.5 31.5625 C-30.16242168 29.5151533 -27.45744671 27.73619245 -25.0625 24.625 C-23 22 -23 22 -20.6875 21.125 C-20.130625 21.08375 -19.57375 21.0425 -19 21 C-19 20.34 -19 19.68 -19 19 C-18.01 18.505 -18.01 18.505 -17 18 C-16.67 17.01 -16.34 16.02 -16 15 C-14.2578125 13.82421875 -14.2578125 13.82421875 -12.125 12.6875 C-8.1640323 10.36166487 -6.87729336 8.22391006 -5 4 C-2.875 2.75 -2.875 2.75 -1 2 C-0.67 1.34 -0.34 0.68 0 0 Z " fill="#50907F" transform="translate(926,758)"/>
<path d="M0 0 C0.66 0 1.32 0 2 0 C3.28369141 1.65454102 3.28369141 1.65454102 4.7265625 3.94140625 C16.94443749 22.88318757 31.00645951 40.13798534 47 56 C47.71800781 56.72960937 48.43601562 57.45921875 49.17578125 58.2109375 C52.64500817 61.72456038 56.11941257 65.16694174 59.875 68.375 C77.30487428 83.49489094 77.30487428 83.49489094 79 92 C79.28473738 98.84424289 77.87320994 105.40277164 73.52734375 110.84375 C67.23688566 117.60706713 60.88147761 120.53266489 51.66015625 121.02734375 C38.38890817 120.89092857 28.48352018 111.24512236 19 103 C19.33 102.34 19.66 101.68 20 101 C20.67546875 101.55429687 21.3509375 102.10859375 22.046875 102.6796875 C23.38492188 103.76636719 23.38492188 103.76636719 24.75 104.875 C25.63171875 105.59429688 26.5134375 106.31359375 27.421875 107.0546875 C29.58176924 108.68442588 31.539766 109.90784005 34 111 C34 111.66 34 112.32 34 113 C34.99 113 35.98 113 37 113 C37 113.66 37 114.32 37 115 C38.32 115 39.64 115 41 115 C41 115.66 41 116.32 41 117 C50.15974004 118.23021326 57.72614248 118.56195569 66 114 C67.92908131 112.4479664 69.37602879 110.88590205 71 109 C71.66 109 72.32 109 73 109 C73.21269531 108.14341797 73.21269531 108.14341797 73.4296875 107.26953125 C73.79759816 105.80544843 74.1769867 104.34417941 74.5703125 102.88671875 C75.82721654 97.90335978 76.10320404 94.11485509 75 89 C74.87625 88.21625 74.7525 87.4325 74.625 86.625 C74.315625 85.820625 74.315625 85.820625 74 85 C72.515 84.505 72.515 84.505 71 84 C70.319375 82.8553125 70.319375 82.8553125 69.625 81.6875 C67.34987231 77.92478882 64.28865572 75.87071332 60.6875 73.4375 C60.130625 72.963125 59.57375 72.48875 59 72 C59 71.01 59 70.02 59 69 C58.42894531 68.75894531 57.85789062 68.51789063 57.26953125 68.26953125 C54.56190157 66.75493633 52.81808239 64.93918122 50.6875 62.6875 C47.96961764 59.88902146 45.37467908 57.40955319 42.125 55.25 C38.93316814 52.95188106 37.91470837 51.32992761 36 48 C34.989375 47.175 33.97875 46.35 32.9375 45.5 C30.01485381 43.01264154 29.03379203 41.61827212 28 38 C27.34 38 26.68 38 26 38 C21 32.52380952 21 32.52380952 21 30 C20.34 30 19.68 30 19 30 C18.67 28.68 18.34 27.36 18 26 C17.34 26 16.68 26 16 26 C14.30859375 23.91796875 14.30859375 23.91796875 12.4375 21.1875 C11.81746094 20.29417969 11.19742188 19.40085937 10.55859375 18.48046875 C9 16 9 16 8 13 C7.21625 12.236875 6.4325 11.47375 5.625 10.6875 C2.67403521 7.66627415 0 4.39814743 0 0 Z " fill="#589585" transform="translate(582,801)"/>
<path d="M0 0 C2.85429709 1.03189176 3.84313939 1.70922257 5.30859375 4.42578125 C5.68113281 5.37839844 6.05367187 6.33101562 6.4375 7.3125 C8.38167596 11.89052901 10.32543527 14.60102762 14 18 C14.86446059 19.33451103 15.69601718 20.69070431 16.5 22.0625 C18.55059934 25.51477484 20.77070578 27.57802933 24 30 C24.33 30.99 24.66 31.98 25 33 C26.67089587 34.16962711 28.34452593 35.33564633 30.03515625 36.4765625 C32.19696565 38.1527169 33.81138576 39.96428294 35.5625 42.0625 C38.44368212 45.51472722 41.21450224 47.62305955 45 50 C45.66 50.99 46.32 51.98 47 53 C48.75042514 54.00487369 50.50293788 55.00685442 52.27734375 55.96875 C54.53895029 57.32263691 56.13912756 59.13912756 58 61 C61.83431728 63.71032822 65.3523503 66.05594616 70 67 C70 67.66 70 68.32 70 69 C71.175625 69.185625 71.175625 69.185625 72.375 69.375 C75 70 75 70 77 72 C78.99172182 72.69100553 80.99161804 73.35902703 83 74 C83.33 74.33 83.66 74.66 84 75 C85.134375 75.144375 86.26875 75.28875 87.4375 75.4375 C91 76 91 76 93 78 C95.25031332 78.56778051 97.528105 79.02783646 99.8125 79.4375 C100.50085938 79.56165283 101.18921875 79.68580566 101.8984375 79.8137207 C111.22657234 81.45375323 120.6165675 82.72305389 130 84 C130 84.66 130 85.32 130 86 C122.88800662 86.34339993 116.16556221 85.20850486 109.17114258 83.97363281 C107.17628643 83.62302917 105.17927548 83.28748992 103.18164062 82.953125 C101.91900391 82.73398437 100.65636719 82.51484375 99.35546875 82.2890625 C98.20715576 82.09006348 97.05884277 81.89106445 95.87573242 81.68603516 C93 81 93 81 90 79 C88.66016286 78.50132851 87.30358659 78.04647862 85.9375 77.625 C78.57568441 75.23480013 71.59073046 72.68518856 65.109375 68.39453125 C63.60134199 67.39755387 62.06644262 66.44074628 60.515625 65.51171875 C50.55550742 59.48095392 41.68443921 52.00552386 33.6171875 43.6171875 C31.76372296 41.76372296 29.80603002 40.07643771 27.8125 38.375 C24.82078773 35.79752481 22.40162182 33.14695273 20 30 C18.86111328 28.89398437 18.86111328 28.89398437 17.69921875 27.765625 C14.80834936 24.80363436 12.39659608 21.73768025 10 18.375 C9.56574707 17.76833496 9.13149414 17.16166992 8.68408203 16.53662109 C5.05123653 11.33067851 2.29734825 5.92474023 0 0 Z " fill="#589585" transform="translate(587,768)"/>
<path d="M0 0 C0.66 0 1.32 0 2 0 C2.16081055 0.55349121 2.32162109 1.10698242 2.48730469 1.67724609 C8.96094053 23.86399375 16.90241748 44.15740247 32 62 C32.66257812 62.80179688 33.32515625 63.60359375 34.0078125 64.4296875 C37.08738312 68.06918005 40.19852934 71.09887766 44 74 C44.70125 74.78375 45.4025 75.5675 46.125 76.375 C49.53146822 79.48525359 53.05583584 81.416205 57.140625 83.5234375 C58.8661989 84.41451255 60.57266659 85.34640322 62.234375 86.3515625 C74.31963311 93.33701311 90.36790561 94.28470336 104 96 C104 96.66 104 97.32 104 98 C95.74103073 97.7265242 87.78953258 96.75827135 79.6875 95.1875 C78.86475586 95.03442383 78.04201172 94.88134766 77.19433594 94.72363281 C68.67326295 92.99615716 61.43547843 89.40058927 54 85 C53.01 84.505 53.01 84.505 52 84 C52 83.34 52 82.68 52 82 C51.40832031 81.87753906 50.81664062 81.75507812 50.20703125 81.62890625 C43.87906803 79.82571673 39.6993026 74.72351508 35.64453125 69.86328125 C33.65118192 67.60478332 31.36037769 65.85969151 29 64 C29 63.34 29 62.68 29 62 C28.34 62 27.68 62 27 62 C25.57103381 60.02901215 24.28343768 58.06313703 23 56 C22.57074219 55.36191406 22.14148438 54.72382812 21.69921875 54.06640625 C18.86366959 49.77544247 17.14963122 46.01657261 16 41 C15.34 41 14.68 41 14 41 C9.74841551 31.87096325 5.71324843 22.74002572 2.5 13.1875 C2.24524902 12.44193848 1.99049805 11.69637695 1.72802734 10.92822266 C0.50841405 7.19075319 -0.30968755 3.94077408 0 0 Z " fill="#589585" transform="translate(617,705)"/>
<path d="M0 0 C5.27383187 1.61144863 10.20503102 3.44242035 15.078125 6.03515625 C17.04982737 7.06290363 17.04982737 7.06290363 19.40234375 7.93359375 C22.20073122 9.08240545 24.71095812 10.45834555 27.3125 12 C28.19550781 12.515625 29.07851563 13.03125 29.98828125 13.5625 C30.98408203 14.2740625 30.98408203 14.2740625 32 15 C32 15.66 32 16.32 32 17 C32.99 17 33.98 17 35 17 C35 17.66 35 18.32 35 19 C35.58652344 19.10699219 36.17304687 19.21398437 36.77734375 19.32421875 C42.07624189 20.93530729 45.80995921 25.69344493 49 30 C49.99 30.33 50.98 30.66 52 31 C53.2109375 32.54711914 53.2109375 32.54711914 54.375 34.53515625 C54.80296875 35.26283203 55.2309375 35.99050781 55.671875 36.74023438 C56.11015625 37.50658203 56.5484375 38.27292969 57 39.0625 C57.43828125 39.80177734 57.8765625 40.54105469 58.328125 41.30273438 C69.86728735 61.16608161 66.63425634 81.35446067 63 103 C62.01 103.33 61.02 103.66 60 104 C60.12117187 103.23558594 60.24234375 102.47117187 60.3671875 101.68359375 C60.72390518 99.40334455 61.07354184 97.12198179 61.41796875 94.83984375 C61.80159972 92.30890924 62.1997091 89.78012086 62.61328125 87.25390625 C65.15305043 70.6503812 63.17322194 54.33059026 54.01171875 39.859375 C42.4852631 24.43910828 22.92713477 8.94502848 4.171875 3.98828125 C3.12515625 3.66214844 2.0784375 3.33601562 1 3 C0.67 2.01 0.34 1.02 0 0 Z " fill="#559483" transform="translate(852,569)"/>
<path d="M0 0 C5.99112006 -0.11383239 11.57274562 0.20299863 17.47265625 1.20703125 C18.24000595 1.3330925 19.00735565 1.45915375 19.79795837 1.58903503 C21.40602754 1.85530971 23.01349681 2.12523135 24.62036133 2.39868164 C27.05830251 2.81178874 29.49854736 3.20834939 31.93945312 3.60351562 C33.51318654 3.86619669 35.08676028 4.12983651 36.66015625 4.39453125 C37.37808853 4.51029007 38.09602081 4.62604889 38.83570862 4.74531555 C43.84591908 5.61453762 48.26998669 7.13164317 53 9 C54.0725 9.28875 55.145 9.5775 56.25 9.875 C64.59502939 12.37850882 72.37395871 16.07026298 80.0625 20.125 C80.70574219 20.46160645 81.34898437 20.79821289 82.01171875 21.14501953 C85.09541402 22.804146 87.65713172 24.39002947 90 27 C90.70125 27.4125 91.4025 27.825 92.125 28.25 C106.06508448 36.73526882 117.21785772 48.73273916 125 63 C125 63.66 125 64.32 125 65 C124.34 65 123.68 65 123 65 C119 59.58823529 119 59.58823529 119 57 C118.34 57 117.68 57 117 57 C116.505 55.02 116.505 55.02 116 53 C115.34 53 114.68 53 114 53 C112.95703125 51.4609375 112.95703125 51.4609375 111.8125 49.375 C108.64287137 44.09228561 104.64478965 40.57427956 99.375 37.4375 C96.44627286 35.66484936 94.3886495 33.44690924 92 31 C88.15816659 27.56687227 84.61418833 25.237687 80 23 C78.865625 22.42121094 77.73125 21.84242188 76.5625 21.24609375 C74.7990625 20.35083984 74.7990625 20.35083984 73 19.4375 C71.2365625 18.53837891 71.2365625 18.53837891 69.4375 17.62109375 C63.83406713 14.97856575 58.0466482 13.44120095 52.07421875 11.87890625 C50.42985673 11.40879004 48.78749718 10.92114711 47.18408203 10.32617188 C40.47888646 7.86607183 33.6043051 6.77035287 26.57080078 5.69238281 C24.50296106 5.37545383 22.43698542 5.04811636 20.37109375 4.71875 C13.59487604 3.6482102 6.82728078 2.67970716 0 2 C0 1.34 0 0.68 0 0 Z " fill="#589685" transform="translate(835,241)"/>
<path d="M0 0 C0 0.66 0 1.32 0 2 C-0.59200195 1.98428955 -1.18400391 1.9685791 -1.79394531 1.95239258 C-25.82047875 1.40380988 -51.86084826 3.2642213 -73 16 C-73.87398437 16.51175781 -74.74796875 17.02351562 -75.6484375 17.55078125 C-85.89800322 23.79526457 -96.97784978 31.40101561 -103 42 C-104.97422143 45.01730234 -106.98637201 48.00888269 -109 51 C-109.66 50.67 -110.32 50.34 -111 50 C-109.58504245 45.49786235 -107.29539127 43.29539127 -104 40 C-103.29782833 38.85435149 -102.63153432 37.68605226 -102 36.5 C-98.43572121 30.0004328 -92.76586943 26.26191283 -86.828125 22.0546875 C-84.28858538 20.20966286 -81.90421317 18.26504198 -79.5 16.25 C-75.50287383 13.09248561 -71.51448536 11.44158651 -66.67578125 9.921875 C-63.90062237 9.03240066 -63.90062237 9.03240066 -61.046875 7.515625 C-44.44143095 -0.74451897 -18.14828514 -4.39528781 0 0 Z " fill="#519180" transform="translate(739,545)"/>
<path d="M0 0 C0.66 0 1.32 0 2 0 C1.01 3.63 0.02 7.26 -1 11 C-1.66 11 -2.32 11 -3 11 C-2.938125 11.9075 -2.87625 12.815 -2.8125 13.75 C-3.01686856 17.29238832 -3.52653696 18.52653696 -6 21 C-6.66 21 -7.32 21 -8 21 C-8.0928125 22.0828125 -8.0928125 22.0828125 -8.1875 23.1875 C-9.25982169 26.89938278 -11.22823938 28.32153847 -14 31 C-15.80160201 32.95040689 -17.59240263 34.90752902 -19.375 36.875 C-20.35596733 37.94474779 -21.33773419 39.01376297 -22.3203125 40.08203125 C-23.80294633 41.69650278 -25.28145668 43.31490333 -26.7421875 44.94921875 C-32.63958693 51.25913058 -39.98420613 56.02851849 -47 61 C-48.01964844 61.72316406 -49.03929687 62.44632812 -50.08984375 63.19140625 C-59.76970251 70 -59.76970251 70 -63 70 C-63 70.66 -63 71.32 -63 72 C-79.64902781 80.60029535 -79.64902781 80.60029535 -88 83 C-89.68956794 83.55625775 -91.3770988 84.11874232 -93.0625 84.6875 C-95.03125 85.34375 -95.03125 85.34375 -97 86 C-97 85.01 -97 84.02 -97 83 C-95.99582031 82.63648438 -94.99164062 82.27296875 -93.95703125 81.8984375 C-85.1023749 78.65837144 -76.46668821 75.17263122 -68 71 C-67.12472656 70.57460938 -66.24945312 70.14921875 -65.34765625 69.7109375 C-38.63597133 55.97349954 -11.1157162 32.98272476 -1.1875 3.875 C-0.78378114 2.58577625 -0.38474975 1.29501136 0 0 Z " fill="#619B8C" transform="translate(914,384)"/>
<path d="M0 0 C0.66 0 1.32 0 2 0 C1.34184715 5.10068457 -0.81496732 9.40549019 -3 14 C-3.51949219 15.1034375 -4.03898438 16.206875 -4.57421875 17.34375 C-9.35305809 27.22359763 -14.87665302 35.83394976 -22.2421875 43.9921875 C-24.13691126 46.15638308 -25.88126955 48.40026914 -27.625 50.6875 C-30.22811309 54.06062889 -32.87210389 57.0903292 -36 60 C-36.62648438 60.6084375 -37.25296875 61.216875 -37.8984375 61.84375 C-43.34296533 66.97238373 -49.13323864 71.43090778 -55.1875 75.8125 C-55.94764404 76.36357422 -56.70778809 76.91464844 -57.4909668 77.48242188 C-69.41583617 86 -69.41583617 86 -73 86 C-73 85.34 -73 84.68 -73 84 C-72.11248047 83.54560547 -72.11248047 83.54560547 -71.20703125 83.08203125 C-66.35444579 80.50929018 -62.85346125 77.94979778 -59 74 C-50.88151659 68 -50.88151659 68 -48 68 C-48 67.34 -48 66.68 -48 66 C-47.0925 65.401875 -46.185 64.80375 -45.25 64.1875 C-41.99592879 61.99725976 -40.40749533 60.0447735 -38 57 C-35.93985321 55.16650984 -33.83950588 53.39714582 -31.70703125 51.6484375 C-29.74594204 50.00909559 -29.74594204 50.00909559 -29 47 C-27 45.33333333 -25 43.66666667 -23 42 C-22.67 41.01 -22.34 40.02 -22 39 C-20.66666667 37.66666667 -19.33333333 36.33333333 -18 35 C-17.67 34.01 -17.34 33.02 -17 32 C-16.34 32 -15.68 32 -15 32 C-14.67 30.68 -14.34 29.36 -14 28 C-13.34 28 -12.68 28 -12 28 C-11.896875 27.29875 -11.79375 26.5975 -11.6875 25.875 C-10.90257613 22.59259109 -9.55636715 19.98822493 -8 17 C-7.31471955 15.34089996 -6.64108137 13.67667436 -6 12 C-5.34 12 -4.68 12 -4 12 C-3.896875 11.319375 -3.79375 10.63875 -3.6875 9.9375 C-2.85274981 6.37084011 -1.50527246 3.33777806 0 0 Z " fill="#589585" transform="translate(964,405)"/>
<path d="M0 0 C0.66 0 1.32 0 2 0 C0.51842672 6.66707975 -2.6351026 12.10114563 -6 18 C-6.9601027 19.72818487 -7.91860109 21.45726266 -8.875 23.1875 C-9.5828878 24.45858156 -10.29103897 25.72951673 -11 27 C-11.66 27 -12.32 27 -13 27 C-13.226875 27.886875 -13.45375 28.77375 -13.6875 29.6875 C-15.21054709 33.53138074 -17.03816572 35.13870889 -20 38 C-21.85900755 39.97663664 -23.67804434 41.9892142 -25.5 44 C-28.17813313 46.95569875 -30.86601687 49.86640579 -33.69140625 52.68359375 C-36.12106804 55.03559175 -36.12106804 55.03559175 -38.4375 58.0625 C-41.06200641 61.07108051 -43.67672327 62.83264561 -47 65 C-47.556875 65.7425 -48.11375 66.485 -48.6875 67.25 C-49.120625 67.8275 -49.55375 68.405 -50 69 C-50.99 69 -51.98 69 -53 69 C-53.33 69.99 -53.66 70.98 -54 72 C-58.08101705 75.78128134 -62.88747492 77.97428251 -68 80 C-71.17855578 81.2886999 -71.17855578 81.2886999 -73 84 C-75.5625 84.625 -75.5625 84.625 -78 85 C-77 82 -77 82 -74.98828125 80.74609375 C-73.66376953 80.09833984 -73.66376953 80.09833984 -72.3125 79.4375 C-61.94706946 73.99901437 -52.70567063 67.01295231 -44.18359375 59.0078125 C-41.87417841 56.88430716 -39.45701771 54.94936942 -37 53 C-35.28641357 51.38161281 -33.6292274 49.70328319 -32 48 C-31.36320313 47.33484375 -30.72640625 46.6696875 -30.0703125 45.984375 C-17.47387689 32.44656876 -7.08283101 17.11684161 0 0 Z " fill="#599686" transform="translate(906,688)"/>
<path d="M0 0 C0 0.66 0 1.32 0 2 C-0.52730713 2.17539307 -1.05461426 2.35078613 -1.59790039 2.53149414 C-12.38215771 6.14419108 -22.7806277 9.99714981 -32.99414062 15.02587891 C-35.2496394 16.12123432 -37.52122194 17.17764191 -39.796875 18.23046875 C-48.13471571 22.09635021 -56.28599127 25.97506965 -64 31 C-65.32916872 31.85587012 -66.65862348 32.7112961 -67.98828125 33.56640625 C-70.94974232 35.47502037 -73.90625196 37.39101268 -76.859375 39.3125 C-80.28864363 41.54230755 -83.732616 43.74751888 -87.1875 45.9375 C-90.82539781 48.24445959 -94.43072152 50.58832535 -98 53 C-96.48458867 48.69977435 -93.25872733 46.74165472 -89.625 44.3125 C-88.75875 43.70825195 -88.75875 43.70825195 -87.875 43.09179688 C-84.99703364 41.13044309 -82.48455684 39.50637649 -79 39 C-79 38.34 -79 37.68 -79 37 C-78.41992188 36.68546875 -77.83984375 36.3709375 -77.2421875 36.046875 C-73.59002839 34.04602215 -69.98877999 32.05953999 -66.5625 29.6875 C-64 28 -64 28 -62 28 C-62 27.34 -62 26.68 -62 26 C-60.66666667 25.33333333 -59.33333333 24.66666667 -58 24 C-57.09636719 23.54753906 -56.19273437 23.09507812 -55.26171875 22.62890625 C-52.84960713 21.42429482 -50.4355253 20.22411564 -48.01953125 19.02734375 C-47.32537109 18.68251953 -46.63121094 18.33769531 -45.91601562 17.98242188 C-44.54443577 17.30108926 -43.17207527 16.62132523 -41.79882812 15.94335938 C-38.5612632 14.33261456 -35.38817222 12.66866931 -32.265625 10.84375 C-29.75110333 9.42406791 -27.66900901 8.37578297 -24.9375 7.5625 C-19.61016194 5.90000312 -14.38115621 3.98985869 -9.13671875 2.0859375 C-3.11151079 0 -3.11151079 0 0 0 Z " fill="#519180" transform="translate(750,308)"/>
<path d="M0 0 C0 0.66 0 1.32 0 2 C-1.98260426 3.68732277 -3.9832342 5.35366057 -6 7 C-6.33 7.66 -6.66 8.32 -7 9 C-7.66 9 -8.32 9 -9 9 C-9 9.66 -9 10.32 -9 11 C-10.57421875 12.55078125 -10.57421875 12.55078125 -12.6875 14.3125 C-21.72450318 21.88588308 -30.45011053 30.54059292 -36 41 C-38.125 43.4375 -38.125 43.4375 -40 45 C-40.66 45 -41.32 45 -42 45 C-42.33 46.32 -42.66 47.64 -43 49 C-43.66 49 -44.32 49 -45 49 C-45.268125 49.721875 -45.53625 50.44375 -45.8125 51.1875 C-46.99901362 53.99766383 -48.27485639 56.48416557 -50 59 C-50.66 59 -51.32 59 -52 59 C-52.4640625 60.175625 -52.4640625 60.175625 -52.9375 61.375 C-54 64 -54 64 -55 66 C-55.66 66 -56.32 66 -57 66 C-57.103125 66.53625 -57.20625 67.0725 -57.3125 67.625 C-58.18092697 70.62502044 -59.55620296 73.2379535 -61 76 C-61.66 76 -62.32 76 -63 76 C-63.66 77.98 -64.32 79.96 -65 82 C-65.66 82 -66.32 82 -67 82 C-67.33 83.65 -67.66 85.3 -68 87 C-68.66 87 -69.32 87 -70 87 C-70.12375 87.598125 -70.2475 88.19625 -70.375 88.8125 C-71 91 -71 91 -73 94 C-73.66 94 -74.32 94 -75 94 C-71.09053585 86.10765453 -66.93233981 78.59332651 -61.7109375 71.484375 C-59.89529148 68.92966045 -59.89529148 68.92966045 -58.1875 65.765625 C-55.66349995 61.27447863 -52.65437068 57.1601496 -49.625 53 C-49.07328125 52.23171875 -48.5215625 51.4634375 -47.953125 50.671875 C-44.91768049 46.48210653 -41.77374827 42.46604409 -38.36669922 38.57275391 C-36.42218505 36.33506897 -34.59482676 34.00761609 -32.75 31.6875 C-28.8789629 26.93016485 -24.7274279 22.61925941 -20.33984375 18.33984375 C-18.25665863 16.25665863 -16.33639641 14.12473177 -14.4375 11.875 C-4.25892857 0 -4.25892857 0 0 0 Z " fill="#589685" transform="translate(596,334)"/>
<path d="M0 0 C-0.33 0.99 -0.66 1.98 -1 3 C-2.21171875 3.21914062 -3.4234375 3.43828125 -4.671875 3.6640625 C-13.82343283 5.37422071 -22.82261239 7.3434013 -31.75 10 C-32.55791992 10.2367041 -33.36583984 10.4734082 -34.19824219 10.71728516 C-38.74381157 12.11119677 -42.82232768 13.85426465 -47.03076172 16.05419922 C-50.29388536 17.62143713 -53.71351422 18.57515667 -57.1875 19.5625 C-61.84986568 20.89147159 -65.88357075 22.39177508 -70 25 C-71.65192748 25.70239436 -73.31934479 26.36942859 -75 27 C-75.88300781 27.35320312 -76.76601563 27.70640625 -77.67578125 28.0703125 C-80.1171875 29.046875 -82.55859375 30.0234375 -85 31 C-85 30.01 -85 29.02 -85 28 C-73.15767061 22.52840522 -61.32398673 17.29662803 -49 13 C-48.10796875 12.68675781 -47.2159375 12.37351562 -46.296875 12.05078125 C-35.57274787 8.30880641 -24.83028171 4.77902955 -13.8125 2 C-12.99362305 1.79238037 -12.17474609 1.58476074 -11.33105469 1.37084961 C-7.47993619 0.44061007 -3.99384453 -0.25611829 0 0 Z " fill="#519180" transform="translate(765,247)"/>
<path d="M0 0 C0.66 0 1.32 0 2 0 C0.33097916 4.13233472 -2.62242172 7.1114423 -5.625 10.3125 C-6.16261963 10.88991943 -6.70023926 11.46733887 -7.25415039 12.06225586 C-12.07304043 17.18237156 -17.17418939 21.76563812 -22.6875 26.125 C-25.05996352 27.96412258 -25.05996352 27.96412258 -27.125 30.25 C-30.86067402 33.82325341 -34.95962932 36.69705541 -39.17041016 39.68408203 C-41.31157155 41.22409536 -43.42697043 42.79669285 -45.54296875 44.37109375 C-47.15363658 45.55990837 -48.76431369 46.74871042 -50.375 47.9375 C-51.14803467 48.51757812 -51.92106934 49.09765625 -52.7175293 49.6953125 C-53.82801636 50.50935547 -53.82801636 50.50935547 -54.9609375 51.33984375 C-55.61884277 51.82831787 -56.27674805 52.31679199 -56.95458984 52.82006836 C-59.29132822 54.16805792 -61.34598207 54.60590457 -64 55 C-62.71034824 53.62437146 -61.37310707 52.29233607 -60 51 C-59.34 51 -58.68 51 -58 51 C-57.67 50.01 -57.34 49.02 -57 48 C-55.07421875 46.46484375 -55.07421875 46.46484375 -52.6875 44.9375 C-51.90761719 44.43089844 -51.12773438 43.92429687 -50.32421875 43.40234375 C-48 42 -48 42 -45.8359375 40.953125 C-43.79178971 40.01997036 -43.79178971 40.01997036 -41.9375 37.8125 C-39.4363138 35.16326851 -36.60757184 33.44789929 -33.5 31.5625 C-30.16242168 29.5151533 -27.45744671 27.73619245 -25.0625 24.625 C-23 22 -23 22 -20.6875 21.125 C-20.130625 21.08375 -19.57375 21.0425 -19 21 C-19 20.34 -19 19.68 -19 19 C-18.34 18.67 -17.68 18.34 -17 18 C-16.505 16.515 -16.505 16.515 -16 15 C-14.2578125 13.82421875 -14.2578125 13.82421875 -12.125 12.6875 C-8.1640323 10.36166487 -6.87729336 8.22391006 -5 4 C-2.875 2.75 -2.875 2.75 -1 2 C-0.67 1.34 -0.34 0.68 0 0 Z " fill="#569484" transform="translate(926,758)"/>
<path d="M0 0 C0.66 0.33 1.32 0.66 2 1 C0.41676508 4.17618293 -1.17663312 7.34632432 -2.7890625 10.5078125 C-3.40107311 11.71352571 -4.01305201 12.91925501 -4.625 14.125 C-4.93695312 14.73214844 -5.24890625 15.33929688 -5.5703125 15.96484375 C-7.07114114 18.93415559 -8.39512159 21.71403888 -9 25 C-9.66 25 -10.32 25 -11 25 C-11.12375 26.485 -11.12375 26.485 -11.25 28 C-11.77870034 31.76132529 -13.18319769 34.57880722 -14.95703125 37.90234375 C-16.72441044 41.45696033 -17.82426069 45.21718658 -19 49 C-19.51490547 50.64769751 -20.03560779 52.29359632 -20.5625 53.9375 C-20.79066406 54.66839844 -21.01882813 55.39929688 -21.25390625 56.15234375 C-22 58 -22 58 -24 60 C-24.57387768 62.42273482 -24.57387768 62.42273482 -24.9375 65.1875 C-25.70879906 69.86995337 -27.12854162 73.63326378 -29 78 C-29.58046593 80.90633286 -30.05298599 83.80849255 -30.47265625 86.7421875 C-30.64667969 87.48726562 -30.82070313 88.23234375 -31 89 C-31.99 89.495 -31.99 89.495 -33 90 C-32.41372759 81.46819364 -30.70194395 74.10583186 -28 66 C-27.690625 64.906875 -27.38125 63.81375 -27.0625 62.6875 C-26.24709704 59.85757207 -25.40375684 57.05210035 -24.5 54.25 C-24.2628125 53.51265625 -24.025625 52.7753125 -23.78125 52.015625 C-23 50 -23 50 -21 47 C-20.55874146 45.40468067 -20.11902215 43.80891795 -19.6875 42.2109375 C-17.37515289 34.77463942 -13.94165325 27.70313523 -10.39453125 20.7890625 C-8.30091975 16.60183949 -6.35601894 12.34643359 -4.41064453 8.08862305 C-3.09130332 5.22555523 -1.75357662 2.63036493 0 0 Z " fill="#569484" transform="translate(520,429)"/>
<path d="M0 0 C12.08277374 1.68308432 23.28873642 8.39641064 34 14 C34.68175293 14.35610352 35.36350586 14.71220703 36.06591797 15.07910156 C49.90004481 22.38236358 61.57448954 31.32243492 73 42 C71.515 42.495 71.515 42.495 70 43 C65.71637879 40.06910128 62.04871547 36.32808576 58.625 32.4375 C56.53697672 30.59040249 54.18025247 29.36725395 51.74609375 28.03125 C50 27 50 27 47.6875 25.0625 C44.46119908 22.58650162 41.07318679 20.97122029 37.40234375 19.24609375 C35 18 35 18 32.86328125 16.390625 C30.61654188 14.71381323 28.74799929 14.38166657 26 14 C26 13.34 26 12.68 26 12 C25.42636719 11.87238281 24.85273437 11.74476563 24.26171875 11.61328125 C21.97404854 10.99296308 19.96658088 10.17233479 17.8125 9.1875 C17.03132812 8.83429687 16.25015625 8.48109375 15.4453125 8.1171875 C13.81510417 7.37239583 12.18489583 6.62760417 10.5546875 5.8828125 C9.77351562 5.52960937 8.99234375 5.17640625 8.1875 4.8125 C7.47980469 4.48894531 6.77210938 4.16539062 6.04296875 3.83203125 C4.04468318 3.01819793 2.10349619 2.46796881 0 2 C0 1.34 0 0.68 0 0 Z " fill="#599686" transform="translate(863,518)"/>
<path d="M0 0 C0 0.99 0 1.98 0 3 C-0.94746094 3.01401855 -0.94746094 3.01401855 -1.9140625 3.02832031 C-22.05765464 3.39839351 -41.59412769 5.49781591 -60.9765625 11.16796875 C-63.97360373 11.99273591 -66.9273543 12.54325537 -70 13 C-70 12.01 -70 11.02 -70 10 C-69.07058594 9.80664062 -68.14117188 9.61328125 -67.18359375 9.4140625 C-65.32927734 9.02347656 -65.32927734 9.02347656 -63.4375 8.625 C-62.21933594 8.36976563 -61.00117187 8.11453125 -59.74609375 7.8515625 C-57.37392109 7.31231991 -55.01426949 6.71123894 -52.6796875 6.02734375 C-35.39956842 1.20285191 -17.8463917 -0.0699173 0 0 Z " fill="#4E8F7E" transform="translate(824,295)"/>
<path d="M0 0 C0.99 0.33 1.98 0.66 3 1 C4.02734375 3.66015625 4.02734375 3.66015625 4.9375 7.0625 C6.16272386 11.60802749 7.68678317 15.56052457 9.8425293 19.71264648 C11.18167648 22.35902276 12.40380359 25.04542502 13.62109375 27.75 C14.08193359 28.7709375 14.54277344 29.791875 15.01757812 30.84375 C15.96353633 32.94645764 16.90625142 35.05062732 17.84570312 37.15625 C20.52671001 43.07914387 23.43846907 48.56772556 27 54 C27.91194589 55.57410816 28.81169067 57.15550327 29.6875 58.75 C30.08324219 59.46671875 30.47898437 60.1834375 30.88671875 60.921875 C31.96275156 62.93046958 32.99206173 64.9565087 34 67 C33.01 66.67 32.02 66.34 31 66 C31 65.34 31 64.68 31 64 C30.34 64 29.68 64 29 64 C23.140625 53.74609375 23.140625 53.74609375 22.07080078 51.86816406 C21.3622192 50.63194284 20.64712792 49.39942807 19.92529297 48.17089844 C17.86972984 44.6528527 16.12824797 41.15977326 14.625 37.375 C12.89856604 33.11435106 11.04950651 28.95771724 9.0625 24.8125 C0 5.43993506 0 5.43993506 0 0 Z " fill="#539281" transform="translate(547,730)"/>
<path d="M0 0 C1.66666667 1.66666667 3.33333333 3.33333333 5 5 C5.845625 5.78375 6.69125 6.5675 7.5625 7.375 C9.5591158 9.52520163 10.66379834 11.04571856 12 13.5625 C13.74209978 17.0361153 13.74209978 17.0361153 16.4375 18.9375 C18.89555219 20.91593225 19.79081995 22.14700675 21.3125 24.8125 C23.68674019 28.86755151 26.6154194 31.44315412 30.21484375 34.41015625 C32.39310009 36.35009133 33.59606221 38.45954113 35 41 C36.62102968 42.71108689 38.29503463 44.37253306 40 46 C41.27347814 47.26818301 42.54423141 48.53910709 43.8125 49.8125 C44.41707031 50.41707031 45.02164063 51.02164063 45.64453125 51.64453125 C46.09183594 52.09183594 46.53914062 52.53914062 47 53 C46.505 53.99 46.505 53.99 46 55 C42.97489042 52.00428676 39.95572125 49.00265195 36.9375 46 C36.08994141 45.16082031 35.24238281 44.32164062 34.36914062 43.45703125 C21.98724384 31.12294101 8.9220926 17.11889146 0 2 C0 1.34 0 0.68 0 0 Z " fill="#579585" transform="translate(550,845)"/>
<path d="M0 0 C0.66 0 1.32 0 2 0 C2.25465659 7.73401499 1.58699501 14.91006847 0.125 22.5 C-0.04902344 23.47453125 -0.22304688 24.4490625 -0.40234375 25.453125 C-1.73561841 32.60342761 -1.73561841 32.60342761 -4 36 C-4.52553161 37.9393071 -4.52553161 37.9393071 -4.875 40.0625 C-5.94626807 45.31516926 -7.88782705 50.08868522 -10 55 C-10.66 55 -11.32 55 -12 55 C-11.51975807 50.10153236 -10.53020877 47.14954238 -8 43 C-7.21909628 40.35500355 -6.62708702 37.68751578 -6 35 C-5.505 34.505 -5.505 34.505 -5 34 C-4.46710684 31.68876626 -3.99442366 29.39318533 -3.5625 27.0625 C-3.43125732 26.36189453 -3.30001465 25.66128906 -3.16479492 24.93945312 C-1.67708931 16.677455 -0.8214835 8.3501382 0 0 Z " fill="#559483" transform="translate(970,652)"/>
<path d="M0 0 C8.30398892 7.04580878 12.28374758 17.10576392 15.8125 27.125 C16.24731689 28.35875366 16.24731689 28.35875366 16.69091797 29.61743164 C19.1606263 36.92832132 21.17609045 44.23655879 21 52 C20.01 52.495 20.01 52.495 19 53 C18.8040625 51.78828125 18.608125 50.5765625 18.40625 49.328125 C16.77854917 39.96177239 14.64076024 31.09967079 11.125 22.25 C10.80982422 21.44208008 10.49464844 20.63416016 10.16992188 19.80175781 C8.12371412 14.87076617 5.62967322 10.85487161 2.25292969 6.71777344 C0.68068061 4.56221138 0.16572561 2.65160978 0 0 Z " fill="#549382" transform="translate(950,579)"/>
<path d="M0 0 C0.66 0 1.32 0 2 0 C1.68348557 6.9000145 0.5491338 13.51051179 -0.875 20.25 C-3.22582497 31.41857137 -4.66179357 42.67149675 -6 54 C-6.66 54 -7.32 54 -8 54 C-7.48928633 44.45480833 -6.41771427 35.13933714 -4.89819336 25.71142578 C-4.55958486 23.60688162 -4.2313322 21.50090176 -3.90429688 19.39453125 C-2.87455933 12.84774459 -1.77511373 6.39040941 0 0 Z " fill="#589585" transform="translate(536,534)"/>
<path d="M0 0 C0 0.66 0 1.32 0 2 C-0.70906494 2.0501123 -1.41812988 2.10022461 -2.14868164 2.15185547 C-14.12441295 3.00816637 -26.02752365 3.88275834 -37.91015625 5.625 C-42.28644955 6.15613041 -46.60038371 6.18633669 -51 6 C-51 5.34 -51 4.68 -51 4 C-49.43765625 3.81824219 -49.43765625 3.81824219 -47.84375 3.6328125 C-47.15933838 3.55272949 -46.47492676 3.47264648 -45.76977539 3.39013672 C-44.23524612 3.21088548 -42.70057345 3.03285817 -41.16577148 2.85595703 C-37.41728847 2.41991761 -33.6759621 1.96528476 -29.94140625 1.421875 C-19.88926037 0.00465403 -10.1352721 -0.2111515 0 0 Z " fill="#4F907E" transform="translate(820,241)"/>
<path d="M0 0 C0.66 0.33 1.32 0.66 2 1 C1.525625 1.598125 1.05125 2.19625 0.5625 2.8125 C-1.16465744 5.00382924 -1.16465744 5.00382924 -2 8 C-2.66 8 -3.32 8 -4 8 C-4.25136719 8.69222656 -4.50273438 9.38445313 -4.76171875 10.09765625 C-6.17680174 13.41439651 -7.94681683 16.35180986 -9.8125 19.4375 C-13.39832435 25.49681135 -15.84599022 31.54064084 -17.9921875 38.234375 C-19 41 -19 41 -21 43 C-21.67292501 44.96690374 -21.67292501 44.96690374 -22.125 47.125 C-22.41375 48.40375 -22.7025 49.6825 -23 51 C-23.66 51 -24.32 51 -25 51 C-21.88729709 34.02162051 -12.47842447 12.47842447 0 0 Z " fill="#579584" transform="translate(594,553)"/>
<path d="M0 0 C0 0.99 0 1.98 0 3 C-1.6796875 4.28125 -1.6796875 4.28125 -3.875 5.5 C-6.93790236 7.21259057 -7.98004629 7.97006943 -10 11 C-10.99 11 -11.98 11 -13 11 C-13.33 11.99 -13.66 12.98 -14 14 C-15.66581903 14.66878186 -17.33270999 15.33489381 -19 16 C-21.4580456 17.66187934 -23.75322696 19.51386797 -26.0625 21.375 C-26.67416016 21.85710937 -27.28582031 22.33921875 -27.91601562 22.8359375 C-31.13905248 25.40042952 -34.13140976 28.0360021 -37 31 C-42.5 36 -42.5 36 -45 36 C-43.55134468 32.5048316 -41.80133512 30.78292934 -38.8125 28.5 C-35.72250064 26.11287603 -32.64516638 23.72329839 -29.63671875 21.234375 C-20.19425551 13.460956 -10.27791656 6.62129891 0 0 Z " fill="#5B9887" transform="translate(643,296)"/>
<path d="M0 0 C9.67440017 0.49568481 19.01636512 1.91480401 28.54296875 3.57958984 C32.89687889 4.32456533 37.26102427 5.00442149 41.625 5.6875 C42.46111816 5.81882324 43.29723633 5.95014648 44.15869141 6.08544922 C46.10568252 6.39101239 48.05282376 6.69561879 50 7 C50 7.99 50 8.98 50 10 C48.42085815 9.74307373 48.42085815 9.74307373 46.80981445 9.48095703 C42.84196899 8.83554135 38.87400414 8.19086213 34.90600586 7.54638672 C33.20024488 7.2692387 31.49451481 6.99190035 29.78881836 6.71435547 C19.86552531 5.09981675 9.94068692 3.50450004 0 2 C0 1.34 0 0.68 0 0 Z " fill="#5A9787" transform="translate(756,547)"/>
<path d="M0 0 C-1 3 -1 3 -4.03515625 4.796875 C-5.37228879 5.4587649 -6.71519554 6.10906914 -8.0625 6.75 C-8.76898682 7.09708008 -9.47547363 7.44416016 -10.20336914 7.80175781 C-13.95494503 9.62306401 -17.73638436 11.33365703 -21.5859375 12.9375 C-22.31546631 13.24333008 -23.04499512 13.54916016 -23.79663086 13.86425781 C-25.20288901 14.44606926 -26.6151415 15.01363688 -28.03344727 15.56542969 C-31.70642226 16.99086629 -31.70642226 16.99086629 -34.00390625 20.015625 C-34.10354846 22.21328741 -34.10354846 22.21328741 -33 25 C-36.875 23.125 -36.875 23.125 -38 22 C-38.04063832 20.33382885 -38.042721 18.66611905 -38 17 C-33.809673 14.74367008 -29.69238376 13.18301837 -25.1484375 11.84375 C-22.73382166 10.89546451 -21.06746404 9.55457392 -19 8 C-17.3959163 7.30383826 -15.76872948 6.65905603 -14.125 6.0625 C-11.00910791 4.87396384 -8.28412602 3.68037635 -5.5625 1.75 C-3 0 -3 0 0 0 Z " fill="#559483" transform="translate(889,491)"/>
<path d="M0 0 C0 0.66 0 1.32 0 2 C-11.62083785 7.89628718 -23.17786993 12.98715366 -35.6875 16.6875 C-36.42033203 16.91244141 -37.15316406 17.13738281 -37.90820312 17.36914062 C-41.70845476 18.49653719 -44.98940158 19.29268667 -49 19 C-49 18.34 -49 17.68 -49 17 C-47.44152344 16.63648438 -47.44152344 16.63648438 -45.8515625 16.265625 C-38.76751599 14.57667946 -31.9074887 12.85489578 -25.2109375 9.9296875 C-23 9 -23 9 -20.11328125 8.0390625 C-16.94930144 6.98307928 -13.89209653 5.78023785 -10.8125 4.5 C-9.78769531 4.0771875 -8.76289062 3.654375 -7.70703125 3.21875 C-0.55769231 0 -0.55769231 0 0 0 Z " fill="#51907F" transform="translate(816,778)"/>
<path d="M0 0 C0.99 0.33 1.98 0.66 3 1 C4.02734375 3.9921875 4.02734375 3.9921875 4.9375 7.875 C6.3629805 13.72465108 8.08093862 19.30441514 10.265625 24.92578125 C11 27 11 27 11 29 C11.66 29 12.32 29 13 29 C16.25968109 38.41002278 16.25968109 38.41002278 17 43 C14 42 14 42 12.97705078 40.1015625 C12.67782715 39.28429687 12.37860352 38.46703125 12.0703125 37.625 C11.73161133 36.71878906 11.39291016 35.81257812 11.04394531 34.87890625 C10.69944336 33.92886719 10.35494141 32.97882812 10 32 C9.31019281 30.18738695 8.62008944 28.37488659 7.9296875 26.5625 C7.24309488 24.70896098 6.55820684 22.85478968 5.875 21 C5.52824219 20.07960938 5.18148437 19.15921875 4.82421875 18.2109375 C2.61673286 12.20589925 1.05575967 6.31060235 0 0 Z " fill="#529281" transform="translate(570,722)"/>
<path d="M0 0 C0.66 0 1.32 0 2 0 C1.18427898 4.94420561 0.36631845 9.8880339 -0.45361328 14.83154297 C-0.73155518 16.50917836 -1.00891194 18.1869108 -1.28564453 19.86474609 C-2.7276942 28.60554534 -4.18080715 37.32792537 -6 46 C-6.66 46 -7.32 46 -8 46 C-7.00020094 35.42003683 -5.37366462 25.01224717 -3.4375 14.5625 C-3.21553955 13.35940186 -2.9935791 12.15630371 -2.76489258 10.91674805 C-1.13302341 2.26604681 -1.13302341 2.26604681 0 0 Z " fill="#599686" transform="translate(485,522)"/>
<path d="M0 0 C0.66 0 1.32 0 2 0 C1.57045619 1.3983022 1.13092966 2.79353907 0.6875 4.1875 C0.44386719 4.96480469 0.20023438 5.74210938 -0.05078125 6.54296875 C-1.0993289 9.2571106 -2.4515134 11.53949748 -4 14 C-4.42539062 14.72058594 -4.85078125 15.44117188 -5.2890625 16.18359375 C-8.29717856 21.25869014 -11.39683636 26.27208951 -14.5625 31.25 C-14.92617676 31.82806396 -15.28985352 32.40612793 -15.66455078 33.00170898 C-18.18733977 36.94194127 -20.95265679 40.4652961 -24 44 C-24.66 43.67 -25.32 43.34 -26 43 C-25.34 41.68 -24.68 40.36 -24 39 C-23.34 39 -22.68 39 -22 39 C-21.67 37.68 -21.34 36.36 -21 35 C-20.34 35 -19.68 35 -19 35 C-19 34.01 -19 33.02 -19 32 C-18.34 31.67 -17.68 31.34 -17 31 C-16.00787404 29.31338586 -15.02125608 27.62288564 -14.08203125 25.90625 C-13.08606285 24.15161974 -11.95413971 22.47603214 -10.8125 20.8125 C-9.2524662 18.39175789 -8.43091925 16.80097509 -8 14 C-7.34 14 -6.68 14 -6 14 C-5.88785156 13.44828125 -5.77570312 12.8965625 -5.66015625 12.328125 C-4.88639227 9.59934789 -3.73182306 7.27227057 -2.4375 4.75 C-1.98246094 3.85796875 -1.52742187 2.9659375 -1.05859375 2.046875 C-0.70925781 1.37140625 -0.35992188 0.6959375 0 0 Z " fill="#589585" transform="translate(956,710)"/>
<path d="M0 0 C0.66 0 1.32 0 2 0 C2.28579347 7.61692516 1.44248382 14.7562268 0.125 22.25 C-0.04902344 23.29929687 -0.22304688 24.34859375 -0.40234375 25.4296875 C-1.25920427 30.44390833 -2.17371917 35.22863568 -4 40 C-4.66 40 -5.32 40 -6 40 C-4.12634134 26.64519888 -2.14543983 13.31389965 0 0 Z " fill="#559483" transform="translate(972,361)"/>
<path d="M0 0 C0.66 0.66 1.32 1.32 2 2 C-2.625 5 -2.625 5 -6 5 C-6 5.66 -6 6.32 -6 7 C-22.64902781 15.60029535 -22.64902781 15.60029535 -31 18 C-32.68956794 18.55625775 -34.3770988 19.11874232 -36.0625 19.6875 C-38.03125 20.34375 -38.03125 20.34375 -40 21 C-40 20.01 -40 19.02 -40 18 C-38.99582031 17.63648438 -37.99164062 17.27296875 -36.95703125 16.8984375 C-24.11916106 12.20084723 -11.91666077 6.7344656 0 0 Z " fill="#529280" transform="translate(857,449)"/>
<path d="M0 0 C0 0.99 0 1.98 0 3 C-1.010625 3.20625 -2.02125 3.4125 -3.0625 3.625 C-7.47906062 4.72317183 -11.65215088 6.32537844 -15.875 8 C-16.54152588 8.26119629 -17.20805176 8.52239258 -17.89477539 8.79150391 C-20.72888497 9.93558137 -22.816614 10.816614 -25 13 C-26.98343396 13.80432248 -28.9934905 14.45581465 -31.02734375 15.12109375 C-33.08864238 15.89475272 -33.08864238 15.89475272 -34.56640625 17.59765625 C-36 19 -36 19 -39 19 C-37.55343535 14.66030604 -34.29620709 13.67192988 -30.4375 11.6875 C-29.68259277 11.29304687 -28.92768555 10.89859375 -28.14990234 10.4921875 C-7.59700574 0 -7.59700574 0 0 0 Z " fill="#549382" transform="translate(671,503)"/>
<path d="M0 0 C0 0.66 0 1.32 0 2 C-5.86958173 4.80009254 -11.71666861 6.21692906 -18.0625 7.5625 C-23.81836373 8.80110359 -29.44179981 10.0254907 -35 12 C-36.66088045 12.36106097 -38.32618981 12.70462173 -40 13 C-39.67 12.01 -39.34 11.02 -39 10 C-36.67431641 9.06445312 -36.67431641 9.06445312 -33.6015625 8.28125 C-32.48136719 7.98863281 -31.36117187 7.69601562 -30.20703125 7.39453125 C-29.02496094 7.09933594 -27.84289062 6.80414063 -26.625 6.5 C-24.32550022 5.90632982 -22.02602087 5.31258055 -19.7265625 4.71875 C-18.60282227 4.43386719 -17.47908203 4.14898437 -16.32128906 3.85546875 C-12.23897786 2.80398254 -8.17956154 1.67804168 -4.12255859 0.53320312 C-2 0 -2 0 0 0 Z " fill="#529280" transform="translate(717,490)"/>
<path d="M0 0 C-6.79201807 6.79201807 -25.27133285 5.05081365 -34.375 5.0625 C-35.916729 5.04694942 -37.45845258 5.02831414 -39 5 C-39 4.34 -39 3.68 -39 3 C-38.30028076 2.9498877 -37.60056152 2.89977539 -36.87963867 2.84814453 C-33.64844798 2.61321664 -30.41800603 2.36915556 -27.1875 2.125 C-25.53717773 2.00705078 -25.53717773 2.00705078 -23.85351562 1.88671875 C-17.53443085 1.40206918 -11.43382642 0.63749372 -5.2355957 -0.69970703 C-3 -1 -3 -1 0 0 Z " fill="#529281" transform="translate(763,798)"/>
<path d="M0 0 C2.27130656 0.30904171 4.54203305 0.62234907 6.8125 0.9375 C8.07707031 1.11152344 9.34164062 1.28554688 10.64453125 1.46484375 C14 2 14 2 17 3 C17 3.66 17 4.32 17 5 C17.99 5.0825 18.98 5.165 20 5.25 C24.32535283 5.8767348 28.51071888 7.31921085 32 10 C32.7265625 12.13671875 32.7265625 12.13671875 33 14 C31.865625 13.4225 30.73125 12.845 29.5625 12.25 C28.04212673 11.49906781 26.52127915 10.7490953 25 10 C24.34902344 9.66484375 23.69804688 9.3296875 23.02734375 8.984375 C15.72019968 5.43639753 7.87349597 3.81621747 0 2 C0 1.34 0 0.68 0 0 Z " fill="#589585" transform="translate(863,300)"/>
<path d="M0 0 C0 0.66 0 1.32 0 2 C-10.90945418 4.32644675 -21.88616817 4.61579502 -33 5 C-33 4.34 -33 3.68 -33 3 C-22.05815352 1.28721856 -11.09899816 -0.12401115 0 0 Z " fill="#549383" transform="translate(766,849)"/>
<path d="M0 0 C0.66 0.33 1.32 0.66 2 1 C1.56429687 1.72703125 1.12859375 2.4540625 0.6796875 3.203125 C-4.83373187 12.51149536 -9.90056447 21.97915758 -14 32 C-14.66 31.67 -15.32 31.34 -16 31 C-13.59628012 24.48167726 -10.73705183 18.46738621 -7.26953125 12.4453125 C-6.12717115 10.2449512 -5.55688706 8.39041142 -5 6 C-3.5625 4.4375 -3.5625 4.4375 -2 3 C-1.34 2.01 -0.68 1.02 0 0 Z " fill="#589585" transform="translate(569,453)"/>
<path d="M0 0 C0.99 0 1.98 0 3 0 C2.52200865 3.37516753 2.0423961 6.75010281 1.5625 10.125 C1.42779297 11.07632813 1.29308594 12.02765625 1.15429688 13.0078125 C0.48888877 17.6818987 -0.1932839 22.34767608 -1 27 C-1.66 27 -2.32 27 -3 27 C-3.21908323 21.74200241 -2.95340418 17.19014233 -1.51171875 12.12890625 C-0.55573231 8.15171075 -0.31694039 4.0701818 0 0 Z " fill="#599686" transform="translate(615,625)"/>
<path d="M0 0 C0.86882813 0.14695312 1.73765625 0.29390625 2.6328125 0.4453125 C4.7290116 0.79062604 6.82772398 1.12139952 8.9296875 1.4296875 C15.0080014 2.34868987 20.33033123 3.6290476 26 6 C26.99 6.33 27.98 6.66 29 7 C29 7.66 29 8.32 29 9 C27.741875 8.87625 26.48375 8.7525 25.1875 8.625 C24.47980469 8.55539062 23.77210938 8.48578125 23.04296875 8.4140625 C21 8 21 8 18 6 C15.98072023 5.36894696 15.98072023 5.36894696 13.76953125 4.9296875 C12.96708984 4.75566406 12.16464844 4.58164062 11.33789062 4.40234375 C10.50451172 4.22832031 9.67113281 4.05429687 8.8125 3.875 C7.96751953 3.69324219 7.12253906 3.51148438 6.25195312 3.32421875 C4.1691928 2.87707247 2.08474994 2.43777624 0 2 C0 1.34 0 0.68 0 0 Z " fill="#579584" transform="translate(811,557)"/>
<path d="M0 0 C0.66 0 1.32 0 2 0 C1.01 3.63 0.02 7.26 -1 11 C-1.66 11 -2.32 11 -3 11 C-2.938125 11.9075 -2.87625 12.815 -2.8125 13.75 C-3.01686856 17.29238832 -3.52653696 18.52653696 -6 21 C-6.66 21 -7.32 21 -8 21 C-8.12375 21.804375 -8.2475 22.60875 -8.375 23.4375 C-8.684375 24.7059375 -8.684375 24.7059375 -9 26 C-9.66 26.33 -10.32 26.66 -11 27 C-10.48232292 22.54797712 -9.45396455 19.72639061 -7 16 C-3.81050898 10.8170771 -1.74448712 5.82817288 0 0 Z " fill="#5A9686" transform="translate(914,384)"/>
<path d="M0 0 C0.66 0 1.32 0 2 0 C2.17159443 6.17739955 1.53731344 11.91629688 0.5 18 C0.35691406 18.87011719 0.21382812 19.74023438 0.06640625 20.63671875 C-0.28338027 22.75875695 -0.6408865 24.87952028 -1 27 C-1.99 27.33 -2.98 27.66 -4 28 C-3.81824219 26.85337891 -3.81824219 26.85337891 -3.6328125 25.68359375 C-2.29575456 17.13670802 -1.11527298 8.57811028 0 0 Z " fill="#5B9787" transform="translate(916,645)"/>
<path d="M0 0 C-1.16282033 3.48846099 -1.63109739 3.64041683 -4.74609375 5.26171875 C-5.87821289 5.85629883 -5.87821289 5.85629883 -7.03320312 6.46289062 C-8.22333008 7.06907227 -8.22333008 7.06907227 -9.4375 7.6875 C-10.22705078 8.10322266 -11.01660156 8.51894531 -11.83007812 8.94726562 C-17.70997537 12 -17.70997537 12 -20 12 C-20.33 12.99 -20.66 13.98 -21 15 C-22.65 15.33 -24.3 15.66 -26 16 C-24.73311051 12.19933154 -23.68262938 12.03006589 -20.1875 10.25 C-14.81840031 7.45300828 -9.6224152 4.43765387 -4.43359375 1.3203125 C-2 0 -2 0 0 0 Z " fill="#559483" transform="translate(676,278)"/>
<path d="M0 0 C0.66 0 1.32 0 2 0 C4.88996879 7.70210288 6.67580986 14.76557056 7 23 C6.34 23.33 5.68 23.66 5 24 C4.1631665 20.37579876 3.33112766 16.75051363 2.5 13.125 C2.26152344 12.09246094 2.02304687 11.05992187 1.77734375 9.99609375 C1.55175781 9.00996094 1.32617188 8.02382813 1.09375 7.0078125 C0.88427734 6.09660645 0.67480469 5.18540039 0.45898438 4.24658203 C0 2 0 2 0 0 Z " fill="#4A8D7B" transform="translate(966,322)"/>
<path d="M0 0 C0.66 0 1.32 0 2 0 C1.33703408 2.783206 0.54293121 5.4781224 -0.375 8.1875 C-1.71993953 12.16957587 -3.04146845 16.15866995 -4.3515625 20.15234375 C-5 22 -5 22 -6 24 C-6.66 24 -7.32 24 -8 24 C-7.71682074 22.39431334 -7.42312209 20.79047953 -7.125 19.1875 C-6.96257813 18.29417969 -6.80015625 17.40085937 -6.6328125 16.48046875 C-6 14 -6 14 -4 11 C-3.32215008 8.66989091 -2.65583207 6.33640176 -2 4 C-1.37530495 2.64649406 -0.7283669 1.30065517 0 0 Z " fill="#569484" transform="translate(551,489)"/>
<path d="M0 0 C-2.23461533 2.23461533 -2.94566925 2.36415473 -5.95703125 2.8515625 C-6.74013672 2.98046875 -7.52324219 3.109375 -8.33007812 3.2421875 C-9.14927734 3.36851562 -9.96847656 3.49484375 -10.8125 3.625 C-11.62009766 3.7590625 -12.42769531 3.893125 -13.25976562 4.03125 C-17.20780814 4.66500621 -20.98713749 5.17907297 -25 5 C-25 4.34 -25 3.68 -25 3 C-21.58604938 2.29852167 -18.16853031 1.61627764 -14.75 0.9375 C-13.78191406 0.73833984 -12.81382812 0.53917969 -11.81640625 0.33398438 C-10.88183594 0.15029297 -9.94726562 -0.03339844 -8.984375 -0.22265625 C-8.12553711 -0.39547119 -7.26669922 -0.56828613 -6.38183594 -0.74633789 C-3.94790649 -1.00554788 -2.31101537 -0.75084609 0 0 Z " fill="#4F907F" transform="translate(773,481)"/>
<path d="M0 0 C0.33695862 2.72876308 0.66968429 5.45793163 1 8.1875 C1.09539063 8.95642578 1.19078125 9.72535156 1.2890625 10.51757812 C1.75192894 14.36928811 2.12467468 18.11170851 2 22 C1.34 22 0.68 22 0 22 C-0.99 15.07 -1.98 8.14 -3 1 C-1 0 -1 0 0 0 Z " fill="#579584" transform="translate(566,686)"/>
<path d="M0 0 C-2.23461533 2.23461533 -2.94566925 2.36415473 -5.95703125 2.8515625 C-6.74013672 2.98046875 -7.52324219 3.109375 -8.33007812 3.2421875 C-9.14927734 3.36851562 -9.96847656 3.49484375 -10.8125 3.625 C-11.62009766 3.7590625 -12.42769531 3.893125 -13.25976562 4.03125 C-17.20780814 4.66500621 -20.98713749 5.17907297 -25 5 C-25 4.34 -25 3.68 -25 3 C-21.39808863 2.30030965 -17.79320331 1.61735569 -14.1875 0.9375 C-12.65125977 0.63875977 -12.65125977 0.63875977 -11.08398438 0.33398438 C-10.10107422 0.15029297 -9.11816406 -0.03339844 -8.10546875 -0.22265625 C-7.19949951 -0.39547119 -6.29353027 -0.56828613 -5.36010742 -0.74633789 C-3 -1 -3 -1 0 0 Z " fill="#529180" transform="translate(745,486)"/>
<path d="M0 0 C0.68835938 0.50660156 0.68835938 0.50660156 1.390625 1.0234375 C5.21046339 3.83116633 5.21046339 3.83116633 9.375 6.0625 C9.91125 6.371875 10.4475 6.68125 11 7 C11.144375 7.598125 11.28875 8.19625 11.4375 8.8125 C11.88423147 11.31877109 11.88423147 11.31877109 14.5625 13.5625 C15.366875 14.366875 16.17125 15.17125 17 16 C17 16.99 17 17.98 17 19 C16.34 19 15.68 19 15 19 C12.86510723 16.38522868 10.87928038 13.70237541 8.89648438 10.97265625 C6.23200504 7.38508196 3.54363238 4.77383073 0 2 C0 1.34 0 0.68 0 0 Z " fill="#5B9888" transform="translate(897,313)"/>
<path d="M0 0 C0 0.99 0 1.98 0 3 C-2.0546875 4.9453125 -2.0546875 4.9453125 -4.875 7.125 C-10.46066714 11.53702502 -15.75676735 16.1889644 -21 21 C-21 18 -21 18 -19.0625 15.8125 C-18.05099606 14.86494171 -17.02833009 13.92927077 -16 13 C-14.87851562 11.95972656 -14.87851562 11.95972656 -13.734375 10.8984375 C-7.27318905 5 -7.27318905 5 -5 5 C-5 4.34 -5 3.68 -5 3 C-2.5 1.375 -2.5 1.375 0 0 Z " fill="#5E998A" transform="translate(651,360)"/>
<path d="M0 0 C0.33 0.99 0.66 1.98 1 3 C-5.34992526 8.59398177 -10.51673414 11.26868398 -19 12 C-19 11.34 -19 10.68 -19 10 C-18.19175781 9.74605469 -17.38351562 9.49210938 -16.55078125 9.23046875 C-15.48214844 8.88628906 -14.41351562 8.54210937 -13.3125 8.1875 C-12.25675781 7.85105469 -11.20101562 7.51460937 -10.11328125 7.16796875 C-5.57390637 5.46499122 -2.71541051 4.07311576 0 0 Z " fill="#4F8F7E" transform="translate(653,910)"/>
<path d="M0 0 C0.66 0 1.32 0 2 0 C0.98253808 2.66105425 -0.09231019 5.17257991 -1.4375 7.6875 C-3.46862676 11.99348872 -4.72447721 16.42259196 -6 21 C-6.66 20.67 -7.32 20.34 -8 20 C-6.28282828 9.5959596 -6.28282828 9.5959596 -3 5 C-2.484375 4.071875 -1.96875 3.14375 -1.4375 2.1875 C-0.963125 1.465625 -0.48875 0.74375 0 0 Z " fill="#599786" transform="translate(626,599)"/>
<path d="M0 0 C0 0.66 0 1.32 0 2 C-6.93 2 -13.86 2 -21 2 C-21 1.34 -21 0.68 -21 0 C-14.0024283 -1.19107603 -6.95092634 -1.79378744 0 0 Z " fill="#559483" transform="translate(739,545)"/>
<path d="M0 0 C-1.20369692 3.61109076 -2.53482939 4.09173559 -5.8203125 5.75195312 C-6.45710937 6.06068359 -7.09390625 6.36941406 -7.75 6.6875 C-8.37132812 7.00783203 -8.99265625 7.32816406 -9.6328125 7.65820312 C-13.22530227 9.43550028 -15.98396001 10.40620252 -20 10 C-18.62048282 7.24096563 -17.17759337 7.16140149 -14.3125 6.125 C-11.13384172 4.91710985 -8.33455644 3.72404019 -5.5625 1.75 C-3 0 -3 0 0 0 Z " fill="#529180" transform="translate(889,491)"/>
<path d="M0 0 C0.66 0 1.32 0 2 0 C0.70396588 2.82868857 -0.69189598 4.9701021 -2.8203125 7.234375 C-3.35527344 7.80800781 -3.89023437 8.38164063 -4.44140625 8.97265625 C-4.99699219 9.55917969 -5.55257812 10.14570312 -6.125 10.75 C-6.68832031 11.35199219 -7.25164063 11.95398438 -7.83203125 12.57421875 C-9.21724146 14.05334151 -10.6080729 15.52719641 -12 17 C-12.33 16.34 -12.66 15.68 -13 15 C-12.38511719 14.31164062 -12.38511719 14.31164062 -11.7578125 13.609375 C-11.21898437 12.99578125 -10.68015625 12.3821875 -10.125 11.75 C-9.59132813 11.14671875 -9.05765625 10.5434375 -8.5078125 9.921875 C-6.93176702 8.04884432 -6.93176702 8.04884432 -5.93359375 5.8359375 C-4.72458805 3.45839491 -3.37804422 3.07395546 -1 2 C-0.67 1.34 -0.34 0.68 0 0 Z " fill="#5D9889" transform="translate(926,758)"/>
<path d="M0 0 C2.25028329 0.14139481 4.50022206 0.28828003 6.75 0.4375 C8.62945313 0.55931641 8.62945313 0.55931641 10.546875 0.68359375 C13.18317553 0.92515522 15.48037294 1.24283934 18 2 C18 2.66 18 3.32 18 4 C15.74971671 3.85860519 13.49977794 3.71171997 11.25 3.5625 C9.37054687 3.44068359 9.37054687 3.44068359 7.453125 3.31640625 C4.81682447 3.07484478 2.51962706 2.75716066 0 2 C0 1.34 0 0.68 0 0 Z " fill="#579484" transform="translate(828,295)"/>
<path d="M0 0 C0 0.99 0 1.98 0 3 C-5.94 3 -11.88 3 -18 3 C-18 2.34 -18 1.68 -18 1 C-11.93303301 0.22959149 -6.11485027 -0.09706112 0 0 Z " fill="#579584" transform="translate(824,295)"/>
<path d="M0 0 C0.66 0 1.32 0 2 0 C1.63478425 6.25904236 1.00980401 11.44343875 -2 17 C-2.99 17.66 -3.98 18.32 -5 19 C-4.80664062 18.46632813 -4.61328125 17.93265625 -4.4140625 17.3828125 C-2.41302552 11.65707301 -1.05915756 5.96866438 0 0 Z " fill="#5D9989" transform="translate(659,893)"/>
<path d="M0 0 C0.66 0 1.32 0 2 0 C2.19430855 2.6246601 2.38073238 5.24946765 2.5625 7.875 C2.61857422 8.62136719 2.67464844 9.36773438 2.73242188 10.13671875 C3.11328125 15.7734375 3.11328125 15.7734375 2 18 C1.34 18 0.68 18 0 18 C0 12.06 0 6.12 0 0 Z " fill="#579585" transform="translate(475,600)"/>
<path d="M0 0 C6.13842918 5.18356242 12.07341663 10.57712263 18 16 C17.67 16.66 17.34 17.32 17 18 C14.91570199 16.0843735 12.83253697 14.16753939 10.75 12.25 C10.16347656 11.71117187 9.57695313 11.17234375 8.97265625 10.6171875 C1.97142102 4.16661122 1.97142102 4.16661122 0 2 C0 1.34 0 0.68 0 0 Z " fill="#619B8B" transform="translate(627,856)"/>
<path d="M0 0 C0.66 0.33 1.32 0.66 2 1 C1.31292969 1.73605469 0.62585938 2.47210938 -0.08203125 3.23046875 C-0.99241501 4.21593571 -1.90255854 5.20162462 -2.8125 6.1875 C-3.70582031 7.15042969 -4.59914063 8.11335938 -5.51953125 9.10546875 C-7.69702078 11.64644472 -9.39192474 14.07768383 -11 17 C-11.99 16.67 -12.98 16.34 -14 16 C-12.2308289 13.89441606 -10.4597399 11.79049842 -8.6875 9.6875 C-8.18798828 9.09259766 -7.68847656 8.49769531 -7.17382812 7.88476562 C-6.44389648 7.01948242 -6.44389648 7.01948242 -5.69921875 6.13671875 C-5.25408936 5.60780029 -4.80895996 5.07888184 -4.3503418 4.53393555 C-2.96013395 2.95471373 -1.50273504 1.47187013 0 0 Z " fill="#629C8D" transform="translate(572,356)"/>
<path d="M0 0 C4.21814817 3.9700218 7.61227103 8.30840284 11 13 C10.67 13.66 10.34 14.32 10 15 C9.566875 14.360625 9.13375 13.72125 8.6875 13.0625 C7.08760823 10.73253997 7.08760823 10.73253997 4 10 C2.83203125 8.4765625 2.83203125 8.4765625 1.8125 6.625 C1.46832031 6.01914062 1.12414062 5.41328125 0.76953125 4.7890625 C0 3 0 3 0 0 Z " fill="#4D8F7D" transform="translate(939,564)"/>
<path d="M0 0 C0 3.69840628 -0.82866944 4.31415433 -3.25 7 C-4.15492188 8.0209375 -4.15492188 8.0209375 -5.078125 9.0625 C-6.93766612 10.93715934 -8.84794211 12.47641919 -11 14 C-11.66 13.67 -12.32 13.34 -13 13 C-9.13242719 8.04467233 -4.81123996 4.03523352 0 0 Z " fill="#5C9988" transform="translate(611,535)"/>
<path d="M0 0 C0.66 0.33 1.32 0.66 2 1 C0.35821735 5.77609498 -2.26546702 9.79382904 -5 14 C-5.66 13.67 -6.32 13.34 -7 13 C-5.68 10.36 -4.36 7.72 -3 5 C-2.34 5 -1.68 5 -1 5 C-0.67 3.35 -0.34 1.7 0 0 Z " fill="#549382" transform="translate(578,436)"/>
<path d="M0 0 C0.66 0 1.32 0 2 0 C2.66 4.62 3.32 9.24 4 14 C3.01 14.495 3.01 14.495 2 15 C0.73694665 9.92523206 -0.27036084 5.27203646 0 0 Z " fill="#4F907E" transform="translate(613,686)"/>
<path d="M0 0 C-1.46818668 3.10742423 -3.20025 5.90471739 -5.125 8.75 C-5.93324219 9.94882812 -5.93324219 9.94882812 -6.7578125 11.171875 C-7.16773438 11.77515625 -7.57765625 12.3784375 -8 13 C-8.66 12.67 -9.32 12.34 -10 12 C-8.73050758 7.810675 -4.99190297 0 0 0 Z " fill="#5E9989" transform="translate(638,583)"/>
<path d="M0 0 C5.11723176 3.19826985 9.52692892 6.95834187 14 11 C13.67 11.66 13.34 12.32 13 13 C10.82727712 11.21526335 8.66186229 9.42280648 6.5 7.625 C5.87996094 7.11710938 5.25992188 6.60921875 4.62109375 6.0859375 C3.04294593 4.76792394 1.51707513 3.38787368 0 2 C0 1.34 0 0.68 0 0 Z " fill="#609B8B" transform="translate(601,902)"/>
<path d="M0 0 C0 0.99 0 1.98 0 3 C-8.42857143 5.28571429 -8.42857143 5.28571429 -13 5 C-13 4.34 -13 3.68 -13 3 C-8.71 2.01 -4.42 1.02 0 0 Z " fill="#50917F" transform="translate(800,473)"/>
<path d="M0 0 C5.2527592 2.19882943 7.61078264 4.60317748 11 9 C11.98290968 10.01680311 12.97334787 11.02738219 14 12 C9.52792762 10.59449154 7.19950835 8.3635857 4 5 C3.236875 4.443125 2.47375 3.88625 1.6875 3.3125 C1.130625 2.879375 0.57375 2.44625 0 2 C0 1.34 0 0.68 0 0 Z " fill="#4E8F7E" transform="translate(923,267)"/>
<path d="M0 0 C0.66 0 1.32 0 2 0 C2.50692692 1.5811292 3.00526443 3.16501383 3.5 4.75 C3.7784375 5.63171875 4.056875 6.5134375 4.34375 7.421875 C5 10 5 10 5 14 C4.34 14 3.68 14 3 14 C2.49307308 12.4188708 1.99473557 10.83498617 1.5 9.25 C1.2215625 8.36828125 0.943125 7.4865625 0.65625 6.578125 C0 4 0 4 0 0 Z " fill="#539281" transform="translate(541,710)"/>
<path d="M0 0 C0.66 0 1.32 0 2 0 C2.66 4.29 3.32 8.58 4 13 C3.01 12.67 2.02 12.34 1 12 C0.67 8.04 0.34 4.08 0 0 Z " fill="#569484" transform="translate(533,675)"/>
<path d="M0 0 C0.66 0.33 1.32 0.66 2 1 C1.525625 1.598125 1.05125 2.19625 0.5625 2.8125 C-1.16465744 5.00382924 -1.16465744 5.00382924 -2 8 C-2.66 8 -3.32 8 -4 8 C-4.33 9.32 -4.66 10.64 -5 12 C-5.99 11.67 -6.98 11.34 -8 11 C-6.85539001 9.35331565 -5.70927742 7.70767566 -4.5625 6.0625 C-3.92441406 5.14597656 -3.28632812 4.22945312 -2.62890625 3.28515625 C-1 1 -1 1 0 0 Z " fill="#5E9989" transform="translate(594,553)"/>
<path d="M0 0 C0.33 0.99 0.66 1.98 1 3 C-0.3125 5.1875 -0.3125 5.1875 -2 7 C-2.66 7 -3.32 7 -4 7 C-4.12375 7.804375 -4.2475 8.60875 -4.375 9.4375 C-4.58125 10.283125 -4.7875 11.12875 -5 12 C-5.99 12.495 -5.99 12.495 -7 13 C-6.44408293 7.02389145 -4.14444935 4.14444935 0 0 Z " fill="#519180" transform="translate(910,398)"/>
<path d="M0 0 C0.66 0 1.32 0 2 0 C2.86627399 1.59766103 3.71766465 3.20339944 4.5625 4.8125 C5.27599609 6.15248047 5.27599609 6.15248047 6.00390625 7.51953125 C7 10 7 10 6 13 C4.43926745 10.65890118 3.13626133 8.43666597 1.875 5.9375 C1.34519531 4.89916016 1.34519531 4.89916016 0.8046875 3.83984375 C0 2 0 2 0 0 Z " fill="#4E8F7D" transform="translate(625,731)"/>
<path d="M0 0 C0.66 0 1.32 0 2 0 C1.33501617 4.38889325 -0.18757677 7.9811485 -2 12 C-2.66 12 -3.32 12 -4 12 C-3.33501617 7.61110675 -1.81242323 4.0188515 0 0 Z " fill="#549282" transform="translate(964,405)"/>
<path d="M0 0 C0.66 0 1.32 0 2 0 C2.33 3.63 2.66 7.26 3 11 C2.01 11.495 2.01 11.495 1 12 C0.03929566 9.11788698 -0.10581883 7.30149956 -0.0625 4.3125 C-0.05347656 3.50425781 -0.04445313 2.69601562 -0.03515625 1.86328125 C-0.02355469 1.24839844 -0.01195312 0.63351562 0 0 Z " fill="#559382" transform="translate(970,334)"/>
<path d="M0 0 C4.00972202 3.67557852 6.45335415 7.18966896 9 12 C5.37648747 10.79216249 4.84784764 9.70346858 2.8125 6.5625 C2.28269531 5.75941406 1.75289062 4.95632813 1.20703125 4.12890625 C0 2 0 2 0 0 Z " fill="#609A8B" transform="translate(550,845)"/>
<path d="M0 0 C0.66 0 1.32 0 2 0 C2.66 3.3 3.32 6.6 4 10 C3.01 10 2.02 10 1 10 C0.67 6.7 0.34 3.4 0 0 Z " fill="#50907F" transform="translate(536,691)"/>
<path d="M0 0 C3.32406103 1.57124734 5.59694427 3.16782718 8 6 C8 6.99 8 7.98 8 9 C4.46766245 7.82255415 4.13691925 7.04394359 2.3125 3.9375 C1.87550781 3.20402344 1.43851563 2.47054687 0.98828125 1.71484375 C0.49908203 0.86599609 0.49908203 0.86599609 0 0 Z " fill="#5C9888" transform="translate(901,602)"/>
<path d="M0 0 C0.66 0 1.32 0 2 0 C1.34 3.63 0.68 7.26 0 11 C-0.66 11 -1.32 11 -2 11 C-1.85892253 9.54119891 -1.71197585 8.08296449 -1.5625 6.625 C-1.48128906 5.81289063 -1.40007813 5.00078125 -1.31640625 4.1640625 C-1 2 -1 2 0 0 Z " fill="#599786" transform="translate(541,517)"/>
<path d="M0 0 C3.3566285 2.23775234 3.57996014 2.93320048 4.6875 6.625 C4.93886719 7.44226563 5.19023438 8.25953125 5.44921875 9.1015625 C5.72185547 10.04128906 5.72185547 10.04128906 6 11 C5.34 11 4.68 11 4 11 C3.32591692 9.73308493 2.66099503 8.46129251 2 7.1875 C1.62875 6.47980469 1.2575 5.77210938 0.875 5.04296875 C0 3 0 3 0 0 Z " fill="#539281" transform="translate(960,307)"/>
<path d="M0 0 C3.27481575 0.97359387 4.76205109 1.69066641 6.875 4.4375 C8 7 8 7 7 10 C5.83043409 8.52312468 4.66441854 7.04343707 3.5 5.5625 C2.8503125 4.73878906 2.200625 3.91507813 1.53125 3.06640625 C0 1 0 1 0 0 Z " fill="#5F998A" transform="translate(598,787)"/>
<path d="M0 0 C0.66 0.33 1.32 0.66 2 1 C-0.97 5.95 -0.97 5.95 -4 11 C-4.66 10.67 -5.32 10.34 -6 10 C-6 9.34 -6 8.68 -6 8 C-5.34 7.67 -4.68 7.34 -4 7 C-2.88365848 5.34948712 -2.88365848 5.34948712 -1.875 3.4375 C-1.25625 2.303125 -0.6375 1.16875 0 0 Z " fill="#4E8F7D" transform="translate(943,734)"/>
<path d="M0 0 C0.99 0.33 1.98 0.66 3 1 C3.66 4.3 4.32 7.6 5 11 C4.34 11 3.68 11 3 11 C2.01 7.37 1.02 3.74 0 0 Z " fill="#599686" transform="translate(495,734)"/>
<path d="M0 0 C0 0.99 0 1.98 0 3 C-0.99 3.495 -0.99 3.495 -2 4 C-2.474375 4.804375 -2.94875 5.60875 -3.4375 6.4375 C-5 9 -5 9 -8 11 C-6.68206814 5.33289301 -4.51290803 3.33562767 0 0 Z " fill="#4C8E7D" transform="translate(601,547)"/>
<path d="M0 0 C3.1325699 1.35550126 3.9345822 1.89397805 5.8125 4.9375 C7 8 7 8 6 11 C4.41028035 8.61542052 3.13258407 6.3695876 1.875 3.8125 C1.52179687 3.09707031 1.16859375 2.38164063 0.8046875 1.64453125 C0.53914062 1.10183594 0.27359375 0.55914063 0 0 Z " fill="#4F907E" transform="translate(587,768)"/>
<path d="M0 0 C0.66 0 1.32 0 2 0 C1.67 2.31 1.34 4.62 1 7 C0.01 7.33 -0.98 7.66 -2 8 C-1.125 1.125 -1.125 1.125 0 0 Z " fill="#569483" transform="translate(910,678)"/>
<path d="M0 0 C0.66 0 1.32 0 2 0 C3.32 2.97 4.64 5.94 6 9 C3 8 3 8 1.3125 5.625 C0 3 0 3 0 0 Z " fill="#589585" transform="translate(561,763)"/>
<path d="M0 0 C2.09350689 3.4019487 2.17942163 6.05272412 2 10 C1.34 9.67 0.68 9.34 0 9 C-0.44921875 7.1875 -0.44921875 7.1875 -0.6875 5 C-0.77386719 4.278125 -0.86023438 3.55625 -0.94921875 2.8125 C-0.96597656 2.214375 -0.98273437 1.61625 -1 1 C-0.67 0.67 -0.34 0.34 0 0 Z " fill="#4D8E7D" transform="translate(569,710)"/>
<path d="M0 0 C0.66 0 1.32 0 2 0 C2.66 2.31 3.32 4.62 4 7 C2.0625 6.25 2.0625 6.25 0 5 C-0.8125 2.9375 -0.8125 2.9375 -1 1 C-0.67 0.67 -0.34 0.34 0 0 Z " fill="#7CAEA0" transform="translate(852,509)"/>
<path d="M0 0 C3.34373475 0.55728913 6.03312999 1.35173889 9 3 C9 3.66 9 4.32 9 5 C5.65626525 4.44271087 2.96687001 3.64826111 0 2 C0 1.34 0 0.68 0 0 Z " fill="#609A8B" transform="translate(898,254)"/>
<path d="M0 0 C3.77300358 1.0197307 4.80206144 1.65872662 6.8125 5.125 C7.204375 6.07375 7.59625 7.0225 8 8 C3.79373966 6.49776416 2.26099979 3.71449966 0 0 Z " fill="#5F9A8A" transform="translate(565,866)"/>
<path d="M0 0 C0.66 0.33 1.32 0.66 2 1 C-0.31 3.31 -2.62 5.62 -5 8 C-5.33 7.34 -5.66 6.68 -6 6 C-4 4 -2 2 0 0 Z " fill="#69A192" transform="translate(919,767)"/>
<path d="M0 0 C4.875 4.625 4.875 4.625 6 8 C5.01 8.495 5.01 8.495 4 9 C0 3.375 0 3.375 0 0 Z " fill="#559483" transform="translate(545,837)"/>
<path d="M0 0 C2.64752004 2.57784846 4.94432065 4.91648098 7 8 C3.34683329 6.75023244 2.21934164 6.32901247 0 3 C0 2.01 0 1.02 0 0 Z " fill="#5D9889" transform="translate(939,564)"/>
<path d="M0 0 C1.65 0 3.3 0 5 0 C5.66 1.65 6.32 3.3 7 5 C4.69 4.01 2.38 3.02 0 2 C0 1.34 0 0.68 0 0 Z " fill="#5C9888" transform="translate(889,309)"/>
</svg>
